<svg width="19" height="18" viewBox="0 0 19 18" fill="none" xmlns="http://www.w3.org/2000/svg">
<path d="M2.21309 17.9479H3.12309V6.11095H2.21309C1.73013 6.11095 1.26695 6.3028 0.925448 6.64431C0.583944 6.98581 0.39209 7.44899 0.39209 7.93195V16.1259C0.391959 16.3652 0.438964 16.6021 0.530419 16.8231C0.621874 17.0442 0.755986 17.245 0.925095 17.4142C1.0942 17.5834 1.29499 17.7177 1.51599 17.8092C1.73699 17.9008 1.97387 17.9479 2.21309 17.9479ZM16.7811 6.11095H10.4071L11.4291 3.04795C11.5209 2.77408 11.5463 2.48228 11.5031 2.19666C11.4599 1.91105 11.3494 1.63981 11.1807 1.40534C11.012 1.17087 10.7899 0.9799 10.5328 0.848206C10.2757 0.716512 9.99095 0.64787 9.70209 0.647949H9.50209L4.95009 5.59895V17.9479H14.9601L18.5221 10.1209L18.6021 9.75295V7.93195C18.6021 7.44899 18.4102 6.98581 18.0687 6.64431C17.7272 6.3028 17.264 6.11095 16.7811 6.11095Z" fill="black"/>
</svg>
