<svg width="33" height="26" viewBox="0 0 33 26" fill="none" xmlns="http://www.w3.org/2000/svg">
<path d="M28.3448 0H0.443848V21.462H28.3438L28.3448 0ZM26.1988 19.316H2.58985V2.146H26.1988V19.316Z" fill="white"/>
<path d="M30.4921 5.36597V23.609H5.81006V25.755H32.6381V5.36597H30.4921Z" fill="white"/>
<path d="M14.3949 15.9941C15.4528 16.0833 16.5129 15.8511 17.4365 15.3278C18.3602 14.8046 19.1043 14.0147 19.5717 13.0615C20.039 12.1083 20.2076 11.0363 20.0556 9.98565C19.9035 8.93502 19.4379 7.95477 18.7195 7.17318C18.0011 6.39159 17.0635 5.84508 16.0294 5.60516C14.9953 5.36524 13.9129 5.44309 12.9238 5.82853C11.9346 6.21397 11.0849 6.88904 10.4858 7.76539C9.88667 8.64173 9.56606 9.67854 9.56593 10.7401C9.51332 12.0762 9.99171 13.3788 10.8966 14.3633C11.8014 15.3478 13.0591 15.9341 14.3949 15.9941ZM14.3949 7.63411C15.0289 7.54067 15.6763 7.64338 16.2503 7.92846C16.8242 8.21355 17.2972 8.66736 17.6058 9.22901C17.9144 9.79065 18.0438 10.4332 17.9767 11.0706C17.9095 11.7079 17.6491 12.3094 17.2302 12.7944C16.8114 13.2794 16.2542 13.6247 15.6335 13.784C15.0128 13.9433 14.3582 13.9088 13.7576 13.6854C13.157 13.4619 12.6391 13.06 12.2734 12.5338C11.9078 12.0075 11.7118 11.3819 11.7119 10.7411C11.6606 9.97432 11.9134 9.21818 12.4156 8.63645C12.9177 8.05472 13.6289 7.69525 14.3949 7.63411Z" fill="white"/>
<path d="M4.73584 4.8291H6.88184V16.6291H4.73584V4.8291Z" fill="white"/>
<path d="M21.9058 4.8291H24.0518V16.6291H21.9058V4.8291Z" fill="white"/>
</svg>
