<svg width="22" height="22" viewBox="0 0 22 22" fill="none" xmlns="http://www.w3.org/2000/svg">
<path d="M1.30271 14.3479L0.0317113 19.833C-0.0120576 20.0335 -0.0104998 20.2413 0.0362709 20.4412C0.0830415 20.6411 0.173845 20.828 0.302056 20.9883C0.430267 21.1486 0.592651 21.2783 0.77736 21.3678C0.962068 21.4574 1.16444 21.5046 1.36971 21.506C1.46547 21.5156 1.56196 21.5156 1.65771 21.506L7.17871 20.233L17.7787 9.67295L11.8627 3.77295L1.30271 14.3479Z" fill="white"/>
<path d="M21.1118 4.38989L17.1638 0.441895C16.9042 0.183587 16.5529 0.0385742 16.1868 0.0385742C15.8206 0.0385742 15.4693 0.183587 15.2098 0.441895L13.0098 2.63689L18.9188 8.54589L21.1188 6.35189C21.2473 6.22278 21.349 6.06959 21.4182 5.90109C21.4874 5.73259 21.5227 5.5521 21.5221 5.36994C21.5214 5.18779 21.4849 5.00755 21.4145 4.83955C21.344 4.67155 21.2412 4.51809 21.1118 4.38989Z" fill="white"/>
</svg>
