<svg width="21" height="21" viewBox="0 0 21 21" fill="none" xmlns="http://www.w3.org/2000/svg">
<path d="M3.29455 4.69753C1.92435 6.23008 1.11909 8.18457 1.0122 10.2372C0.905311 12.2898 1.5032 14.3173 2.70681 15.9837C3.91042 17.6502 5.64751 18.8556 7.63025 19.4002C9.61299 19.9448 11.7224 19.796 13.6089 18.9783C15.4954 18.1607 17.0458 16.7232 18.0033 14.9043C18.9607 13.0853 19.2677 10.9939 18.8734 8.97671C18.479 6.95948 17.407 5.13747 15.835 3.81256C14.263 2.48764 12.2853 1.73936 10.2296 1.69169C10.2021 1.69071 10.1746 1.6953 10.1489 1.70519C10.1232 1.71509 10.0997 1.73007 10.0799 1.74925C10.0601 1.76843 10.0444 1.79141 10.0338 1.81681C10.0231 1.84221 10.0177 1.8695 10.0178 1.89705V5.82518" stroke="#989898" stroke-width="2" stroke-linecap="round" stroke-linejoin="round"/>
<path d="M8.956 11.7723L5.24348 6.46486C5.19194 6.39137 5.16796 6.30206 5.17576 6.21264C5.18356 6.12322 5.22265 6.03941 5.28615 5.97594C5.34964 5.91248 5.43348 5.87341 5.52294 5.86561C5.61239 5.85781 5.70174 5.88178 5.77527 5.9333L11.085 9.64426C11.2515 9.75827 11.3937 9.90413 11.5035 10.0734C11.6133 10.2427 11.6884 10.4321 11.7245 10.6306C11.7607 10.8291 11.757 11.0327 11.7139 11.2298C11.6708 11.4269 11.589 11.6135 11.4733 11.7788C11.3577 11.9441 11.2103 12.0849 11.0399 12.1929C10.8694 12.301 10.6792 12.3742 10.4803 12.4083C10.2814 12.4424 10.0777 12.4368 9.88096 12.3917C9.68422 12.3467 9.49837 12.2631 9.33415 12.1458C9.18766 12.0439 9.05976 11.9175 8.956 11.7723Z" fill="#989898"/>
</svg>
