<svg width="1728" height="1570" viewBox="0 0 1728 1570" fill="none" xmlns="http://www.w3.org/2000/svg">
<rect width="1728" height="1117" fill="white"/>
<rect y="907" width="1728" height="663" fill="white"/>
<path d="M294.23 359.01C294.23 362.01 290.9 364.08 284.99 364.08C279.08 364.08 275.75 362.01 275.75 359.01C275.75 356.01 279.08 353.97 284.96 353.97C290.9 353.97 294.23 356.01 294.23 359.01ZM291.08 359.01C291.08 357.36 288.8 356.34 284.96 356.34C281.15 356.34 278.87 357.36 278.87 359.01C278.87 360.66 281.15 361.68 284.96 361.68C288.71 361.68 291.08 360.66 291.08 359.01ZM297.05 365.94V368.43H272.9V365.94H297.05ZM294.29 375.42C294.29 378.48 290.87 380.34 284.99 380.34C279.14 380.34 275.72 378.48 275.72 375.42C275.72 372.42 279.14 370.53 284.96 370.53C290.87 370.53 294.29 372.42 294.29 375.42ZM291.11 375.45C291.11 373.89 288.71 372.99 284.96 372.99C281.27 372.99 278.87 373.89 278.87 375.45C278.87 377.04 281.27 377.85 284.96 377.85C288.74 377.85 291.11 377.04 291.11 375.45ZM313.767 359.19C313.767 362.1 311.007 364.05 307.137 364.05C303.297 364.05 300.447 362.13 300.447 359.13C300.447 356.28 303.297 354.21 307.137 354.21C311.007 354.21 313.767 356.28 313.767 359.19ZM312.927 371.37V369.12H318.147V353.61H321.207V374.22H318.147V371.37H312.927ZM321.687 379.65H302.337V371.79H305.397V377.19H321.687V379.65ZM309.507 372.87H306.417V368.01C303.927 368.13 301.467 368.19 298.977 368.22L298.557 365.67C301.587 365.67 304.497 365.64 307.437 365.52C311.037 365.4 313.857 365.19 316.227 364.92L316.437 367.2C314.157 367.47 311.817 367.68 309.507 367.83V372.87ZM310.737 359.19C310.737 357.78 309.357 356.58 307.137 356.58C304.917 356.58 303.507 357.78 303.507 359.19C303.507 360.57 304.917 361.71 307.137 361.71C309.357 361.71 310.737 360.57 310.737 359.19ZM353.755 380.01H335.785V370.2H353.755V380.01ZM353.665 354.75C353.665 358.32 353.395 361.77 352.825 364.38H356.845V366.87H332.695V364.38H349.885C350.305 362.55 350.575 359.31 350.605 357.21H335.785V354.75H353.665ZM350.695 377.55V372.6H338.845V377.55H350.695ZM371.102 361.26C371.102 364.65 368.912 367.47 365.072 367.47C361.232 367.47 358.982 364.65 358.982 361.26C358.982 357.93 361.232 355.14 365.042 355.14C368.882 355.14 371.102 357.93 371.102 361.26ZM381.182 369.33H378.242V362.67H375.842V369.03H372.962V354.09H375.842V360.12H378.242V353.61H381.182V369.33ZM362.972 370.65H381.182V380.37H378.152V373.08H362.972V370.65ZM368.222 361.29C368.222 359.19 366.962 357.6 365.042 357.6C363.152 357.6 361.892 359.19 361.892 361.26C361.892 363.42 363.152 365.01 365.042 365.01C366.962 365.01 368.222 363.42 368.222 361.29Z" fill="#707070"/>
<path d="M795.5 410.97H607.5C589.551 410.97 575 425.521 575 443.47C575 461.419 589.551 475.97 607.5 475.97H795.5C813.449 475.97 828 461.419 828 443.47C828 425.521 813.449 410.97 795.5 410.97Z" fill="white"/>
<path d="M795.5 411.47H607.5C589.827 411.47 575.5 425.797 575.5 443.47C575.5 461.143 589.827 475.47 607.5 475.47H795.5C813.173 475.47 827.5 461.143 827.5 443.47C827.5 425.797 813.173 411.47 795.5 411.47Z" stroke="black"/>
<path d="M675.25 439.945V442.045H673.1C672.425 444.57 671.75 447.27 671.1 449.82H668.775L666.725 442.045H664.4C663.75 444.57 663 447.27 662.325 449.82H659.975L658 442.045H655.675V439.945H657.5C657 437.92 656.475 435.545 655.975 433.545H658.3L659.775 439.945H662.7C663.2 437.895 663.775 435.595 664.25 433.545H666.8L668.375 439.945H671.325C671.825 437.895 672.325 435.595 672.825 433.545H675.15L673.6 439.945H675.25ZM669.9 445.77L670.825 442.045H668.925L669.9 445.77ZM661.175 445.745L662.175 442.045H660.275L661.175 445.745ZM664.925 439.945H666.175C665.95 438.995 665.8 438.595 665.55 437.52C665.35 438.345 665.125 439.07 664.925 439.945ZM689.123 450.17C687.098 450.17 685.323 449.62 684.373 448.97L684.848 447.045C685.748 447.62 687.423 448.07 688.698 448.07C691.223 448.07 692.598 446.995 692.598 445.02C692.598 443.045 691.148 442.17 688.823 442.145L687.173 442.12V440.145L688.648 440.12C690.723 440.095 692.048 439.095 692.048 437.395C692.048 435.52 690.848 434.845 688.898 434.845C687.598 434.845 686.323 435.37 685.298 435.87L684.973 433.895C686.023 433.245 687.948 432.72 689.548 432.72C692.648 432.72 694.698 434.245 694.698 436.945C694.698 438.995 693.473 440.27 691.573 440.92C693.723 441.345 695.298 442.545 695.298 445.12C695.298 448.17 692.923 450.17 689.123 450.17ZM697.638 453.12L698.013 447.545H700.813L699.713 453.12H697.638ZM709.337 450.22C705.737 450.22 702.912 447.87 702.912 442.095V440.895C702.912 434.845 705.937 432.72 709.387 432.72C712.812 432.72 715.687 434.87 715.687 440.795V442.07C715.687 447.945 712.862 450.22 709.337 450.22ZM709.337 448.17C711.762 448.17 713.012 446.495 713.012 442.32V440.77C713.012 436.645 711.762 434.77 709.362 434.77C706.937 434.77 705.662 436.57 705.662 440.62V442.17C705.662 446.245 706.912 448.17 709.337 448.17ZM725.304 450.22C721.704 450.22 718.879 447.87 718.879 442.095V440.895C718.879 434.845 721.904 432.72 725.354 432.72C728.779 432.72 731.654 434.87 731.654 440.795V442.07C731.654 447.945 728.829 450.22 725.304 450.22ZM725.304 448.17C727.729 448.17 728.979 446.495 728.979 442.32V440.77C728.979 436.645 727.729 434.77 725.329 434.77C722.904 434.77 721.629 436.57 721.629 440.62V442.17C721.629 446.245 722.879 448.17 725.304 448.17ZM741.27 450.22C737.67 450.22 734.845 447.87 734.845 442.095V440.895C734.845 434.845 737.87 432.72 741.32 432.72C744.745 432.72 747.62 434.87 747.62 440.795V442.07C747.62 447.945 744.795 450.22 741.27 450.22ZM741.27 448.17C743.695 448.17 744.945 446.495 744.945 442.32V440.77C744.945 436.645 743.695 434.77 741.295 434.77C738.87 434.77 737.595 436.57 737.595 440.62V442.17C737.595 446.245 738.845 448.17 741.27 448.17Z" fill="black"/>
<path d="M1098.5 410.97H910.5C892.551 410.97 878 425.521 878 443.47C878 461.419 892.551 475.97 910.5 475.97H1098.5C1116.45 475.97 1131 461.419 1131 443.47C1131 425.521 1116.45 410.97 1098.5 410.97Z" fill="white"/>
<path d="M1098.5 411.47H910.5C892.827 411.47 878.5 425.797 878.5 443.47C878.5 461.143 892.827 475.47 910.5 475.47H1098.5C1116.17 475.47 1130.5 461.143 1130.5 443.47C1130.5 425.797 1116.17 411.47 1098.5 411.47Z" stroke="black"/>
<path d="M978.25 439.945V442.045H976.1C975.425 444.57 974.75 447.27 974.1 449.82H971.775L969.725 442.045H967.4C966.75 444.57 966 447.27 965.325 449.82H962.975L961 442.045H958.675V439.945H960.5C960 437.92 959.475 435.545 958.975 433.545H961.3L962.775 439.945H965.7C966.2 437.895 966.775 435.595 967.25 433.545H969.8L971.375 439.945H974.325C974.825 437.895 975.325 435.595 975.825 433.545H978.15L976.6 439.945H978.25ZM972.9 445.77L973.825 442.045H971.925L972.9 445.77ZM964.175 445.745L965.175 442.045H963.275L964.175 445.745ZM967.925 439.945H969.175C968.95 438.995 968.8 438.595 968.55 437.52C968.35 438.345 968.125 439.07 967.925 439.945ZM991.773 450.22C989.798 450.22 988.023 449.67 986.948 448.995L987.423 446.97C988.348 447.545 989.823 448.07 991.148 448.07C993.648 448.07 995.148 446.77 995.148 444.57C995.148 442.22 993.748 441.295 991.248 441.295C990.148 441.295 988.573 441.77 987.773 442.145L988.398 432.995H997.123V435.07H990.398L990.098 439.67C990.698 439.495 991.673 439.345 992.323 439.345C995.773 439.345 997.823 441.02 997.823 444.595C997.823 447.695 995.573 450.22 991.773 450.22ZM999.832 453.12L1000.21 447.545H1003.01L1001.91 453.12H999.832ZM1011.53 450.22C1007.93 450.22 1005.11 447.87 1005.11 442.095V440.895C1005.11 434.845 1008.13 432.72 1011.58 432.72C1015.01 432.72 1017.88 434.87 1017.88 440.795V442.07C1017.88 447.945 1015.06 450.22 1011.53 450.22ZM1011.53 448.17C1013.96 448.17 1015.21 446.495 1015.21 442.32V440.77C1015.21 436.645 1013.96 434.77 1011.56 434.77C1009.13 434.77 1007.86 436.57 1007.86 440.62V442.17C1007.86 446.245 1009.11 448.17 1011.53 448.17ZM1027.5 450.22C1023.9 450.22 1021.07 447.87 1021.07 442.095V440.895C1021.07 434.845 1024.1 432.72 1027.55 432.72C1030.97 432.72 1033.85 434.87 1033.85 440.795V442.07C1033.85 447.945 1031.02 450.22 1027.5 450.22ZM1027.5 448.17C1029.92 448.17 1031.17 446.495 1031.17 442.32V440.77C1031.17 436.645 1029.92 434.77 1027.52 434.77C1025.1 434.77 1023.82 436.57 1023.82 440.62V442.17C1023.82 446.245 1025.07 448.17 1027.5 448.17ZM1043.46 450.22C1039.86 450.22 1037.04 447.87 1037.04 442.095V440.895C1037.04 434.845 1040.06 432.72 1043.51 432.72C1046.94 432.72 1049.81 434.87 1049.81 440.795V442.07C1049.81 447.945 1046.99 450.22 1043.46 450.22ZM1043.46 448.17C1045.89 448.17 1047.14 446.495 1047.14 442.32V440.77C1047.14 436.645 1045.89 434.77 1043.49 434.77C1041.06 434.77 1039.79 436.57 1039.79 440.62V442.17C1039.79 446.245 1041.04 448.17 1043.46 448.17Z" fill="black"/>
<path d="M492.5 507.97H304.5C286.551 507.97 272 522.521 272 540.47C272 558.419 286.551 572.97 304.5 572.97H492.5C510.449 572.97 525 558.419 525 540.47C525 522.521 510.449 507.97 492.5 507.97Z" fill="white"/>
<path d="M492.5 508.47H304.5C286.827 508.47 272.5 522.797 272.5 540.47C272.5 558.143 286.827 572.47 304.5 572.47H492.5C510.173 572.47 524.5 558.143 524.5 540.47C524.5 522.797 510.173 508.47 492.5 508.47Z" stroke="black"/>
<path d="M366.25 536.945V539.045H364.1C363.425 541.57 362.75 544.27 362.1 546.82H359.775L357.725 539.045H355.4C354.75 541.57 354 544.27 353.325 546.82H350.975L349 539.045H346.675V536.945H348.5C348 534.92 347.475 532.545 346.975 530.545H349.3L350.775 536.945H353.7C354.2 534.895 354.775 532.595 355.25 530.545H357.8L359.375 536.945H362.325C362.825 534.895 363.325 532.595 363.825 530.545H366.15L364.6 536.945H366.25ZM360.9 542.77L361.825 539.045H359.925L360.9 542.77ZM352.175 542.745L353.175 539.045H351.275L352.175 542.745ZM355.925 536.945H357.175C356.95 535.995 356.8 535.595 356.55 534.52C356.35 535.345 356.125 536.07 355.925 536.945ZM378.248 547.02V532.595L375.248 533.245V531.72L379.473 529.82H380.848V547.02H378.248ZM391.548 547.22C387.948 547.22 385.123 544.87 385.123 539.095V537.895C385.123 531.845 388.148 529.72 391.598 529.72C395.023 529.72 397.898 531.87 397.898 537.795V539.07C397.898 544.945 395.073 547.22 391.548 547.22ZM391.548 545.17C393.973 545.17 395.223 543.495 395.223 539.32V537.77C395.223 533.645 393.973 531.77 391.573 531.77C389.148 531.77 387.873 533.57 387.873 537.62V539.17C387.873 543.245 389.123 545.17 391.548 545.17ZM400.063 550.12L400.438 544.545H403.238L402.138 550.12H400.063ZM411.763 547.22C408.163 547.22 405.338 544.87 405.338 539.095V537.895C405.338 531.845 408.363 529.72 411.813 529.72C415.238 529.72 418.113 531.87 418.113 537.795V539.07C418.113 544.945 415.288 547.22 411.763 547.22ZM411.763 545.17C414.188 545.17 415.438 543.495 415.438 539.32V537.77C415.438 533.645 414.188 531.77 411.788 531.77C409.363 531.77 408.088 533.57 408.088 537.62V539.17C408.088 543.245 409.338 545.17 411.763 545.17ZM427.729 547.22C424.129 547.22 421.304 544.87 421.304 539.095V537.895C421.304 531.845 424.329 529.72 427.779 529.72C431.204 529.72 434.079 531.87 434.079 537.795V539.07C434.079 544.945 431.254 547.22 427.729 547.22ZM427.729 545.17C430.154 545.17 431.404 543.495 431.404 539.32V537.77C431.404 533.645 430.154 531.77 427.754 531.77C425.329 531.77 424.054 533.57 424.054 537.62V539.17C424.054 543.245 425.304 545.17 427.729 545.17ZM443.696 547.22C440.096 547.22 437.271 544.87 437.271 539.095V537.895C437.271 531.845 440.296 529.72 443.746 529.72C447.171 529.72 450.046 531.87 450.046 537.795V539.07C450.046 544.945 447.221 547.22 443.696 547.22ZM443.696 545.17C446.121 545.17 447.371 543.495 447.371 539.32V537.77C447.371 533.645 446.121 531.77 443.721 531.77C441.296 531.77 440.021 533.57 440.021 537.62V539.17C440.021 543.245 441.271 545.17 443.696 545.17Z" fill="black"/>
<path d="M795.5 507.97H607.5C589.551 507.97 575 522.521 575 540.47C575 558.419 589.551 572.97 607.5 572.97H795.5C813.449 572.97 828 558.419 828 540.47C828 522.521 813.449 507.97 795.5 507.97Z" fill="white"/>
<path d="M795.5 508.47H607.5C589.827 508.47 575.5 522.797 575.5 540.47C575.5 558.143 589.827 572.47 607.5 572.47H795.5C813.173 572.47 827.5 558.143 827.5 540.47C827.5 522.797 813.173 508.47 795.5 508.47Z" stroke="black"/>
<path d="M669.25 536.945V539.045H667.1C666.425 541.57 665.75 544.27 665.1 546.82H662.775L660.725 539.045H658.4C657.75 541.57 657 544.27 656.325 546.82H653.975L652 539.045H649.675V536.945H651.5C651 534.92 650.475 532.545 649.975 530.545H652.3L653.775 536.945H656.7C657.2 534.895 657.775 532.595 658.25 530.545H660.8L662.375 536.945H665.325C665.825 534.895 666.325 532.595 666.825 530.545H669.15L667.6 536.945H669.25ZM663.9 542.77L664.825 539.045H662.925L663.9 542.77ZM655.175 542.745L656.175 539.045H654.275L655.175 542.745ZM658.925 536.945H660.175C659.95 535.995 659.8 535.595 659.55 534.52C659.35 535.345 659.125 536.07 658.925 536.945ZM678.598 546.92V545.395L682.198 541.645C684.548 539.17 686.348 537.17 686.348 534.92C686.348 532.77 685.223 531.845 682.973 531.845C681.698 531.845 680.298 532.47 679.348 533.095L678.823 531.12C679.923 530.445 681.648 529.72 683.573 529.72C687.173 529.72 689.073 531.57 689.073 534.62C689.073 537.595 686.798 539.995 684.398 542.52L682.098 544.82H689.298V546.92H678.598ZM698.381 547.22C694.781 547.22 691.956 544.87 691.956 539.095V537.895C691.956 531.845 694.981 529.72 698.431 529.72C701.856 529.72 704.731 531.87 704.731 537.795V539.07C704.731 544.945 701.906 547.22 698.381 547.22ZM698.381 545.17C700.806 545.17 702.056 543.495 702.056 539.32V537.77C702.056 533.645 700.806 531.77 698.406 531.77C695.981 531.77 694.706 533.57 694.706 537.62V539.17C694.706 543.245 695.956 545.17 698.381 545.17ZM706.896 550.12L707.271 544.545H710.071L708.971 550.12H706.896ZM718.596 547.22C714.996 547.22 712.171 544.87 712.171 539.095V537.895C712.171 531.845 715.196 529.72 718.646 529.72C722.071 529.72 724.946 531.87 724.946 537.795V539.07C724.946 544.945 722.121 547.22 718.596 547.22ZM718.596 545.17C721.021 545.17 722.271 543.495 722.271 539.32V537.77C722.271 533.645 721.021 531.77 718.621 531.77C716.196 531.77 714.921 533.57 714.921 537.62V539.17C714.921 543.245 716.171 545.17 718.596 545.17ZM734.562 547.22C730.962 547.22 728.137 544.87 728.137 539.095V537.895C728.137 531.845 731.162 529.72 734.612 529.72C738.037 529.72 740.912 531.87 740.912 537.795V539.07C740.912 544.945 738.087 547.22 734.562 547.22ZM734.562 545.17C736.987 545.17 738.237 543.495 738.237 539.32V537.77C738.237 533.645 736.987 531.77 734.587 531.77C732.162 531.77 730.887 533.57 730.887 537.62V539.17C730.887 543.245 732.137 545.17 734.562 545.17ZM750.529 547.22C746.929 547.22 744.104 544.87 744.104 539.095V537.895C744.104 531.845 747.129 529.72 750.579 529.72C754.004 529.72 756.879 531.87 756.879 537.795V539.07C756.879 544.945 754.054 547.22 750.529 547.22ZM750.529 545.17C752.954 545.17 754.204 543.495 754.204 539.32V537.77C754.204 533.645 752.954 531.77 750.554 531.77C748.129 531.77 746.854 533.57 746.854 537.62V539.17C746.854 543.245 748.104 545.17 750.529 545.17Z" fill="black"/>
<path d="M1098.5 507.97H910.5C892.551 507.97 878 522.521 878 540.47C878 558.419 892.551 572.97 910.5 572.97H1098.5C1116.45 572.97 1131 558.419 1131 540.47C1131 522.521 1116.45 507.97 1098.5 507.97Z" fill="white"/>
<path d="M1098.5 508.47H910.5C892.827 508.47 878.5 522.797 878.5 540.47C878.5 558.143 892.827 572.47 910.5 572.47H1098.5C1116.17 572.47 1130.5 558.143 1130.5 540.47C1130.5 522.797 1116.17 508.47 1098.5 508.47Z" stroke="black"/>
<path d="M972.25 536.945V539.045H970.1C969.425 541.57 968.75 544.27 968.1 546.82H965.775L963.725 539.045H961.4C960.75 541.57 960 544.27 959.325 546.82H956.975L955 539.045H952.675V536.945H954.5C954 534.92 953.475 532.545 952.975 530.545H955.3L956.775 536.945H959.7C960.2 534.895 960.775 532.595 961.25 530.545H963.8L965.375 536.945H968.325C968.825 534.895 969.325 532.595 969.825 530.545H972.15L970.6 536.945H972.25ZM966.9 542.77L967.825 539.045H965.925L966.9 542.77ZM958.175 542.745L959.175 539.045H957.275L958.175 542.745ZM961.925 536.945H963.175C962.95 535.995 962.8 535.595 962.55 534.52C962.35 535.345 962.125 536.07 961.925 536.945ZM986.123 547.17C984.098 547.17 982.323 546.62 981.373 545.97L981.848 544.045C982.748 544.62 984.423 545.07 985.698 545.07C988.223 545.07 989.598 543.995 989.598 542.02C989.598 540.045 988.148 539.17 985.823 539.145L984.173 539.12V537.145L985.648 537.12C987.723 537.095 989.048 536.095 989.048 534.395C989.048 532.52 987.848 531.845 985.898 531.845C984.598 531.845 983.323 532.37 982.298 532.87L981.973 530.895C983.023 530.245 984.948 529.72 986.548 529.72C989.648 529.72 991.698 531.245 991.698 533.945C991.698 535.995 990.473 537.27 988.573 537.92C990.723 538.345 992.298 539.545 992.298 542.12C992.298 545.17 989.923 547.17 986.123 547.17ZM1001.55 547.22C997.952 547.22 995.127 544.87 995.127 539.095V537.895C995.127 531.845 998.152 529.72 1001.6 529.72C1005.03 529.72 1007.9 531.87 1007.9 537.795V539.07C1007.9 544.945 1005.08 547.22 1001.55 547.22ZM1001.55 545.17C1003.98 545.17 1005.23 543.495 1005.23 539.32V537.77C1005.23 533.645 1003.98 531.77 1001.58 531.77C999.152 531.77 997.877 533.57 997.877 537.62V539.17C997.877 543.245 999.127 545.17 1001.55 545.17ZM1010.07 550.12L1010.44 544.545H1013.24L1012.14 550.12H1010.07ZM1021.77 547.22C1018.17 547.22 1015.34 544.87 1015.34 539.095V537.895C1015.34 531.845 1018.37 529.72 1021.82 529.72C1025.24 529.72 1028.12 531.87 1028.12 537.795V539.07C1028.12 544.945 1025.29 547.22 1021.77 547.22ZM1021.77 545.17C1024.19 545.17 1025.44 543.495 1025.44 539.32V537.77C1025.44 533.645 1024.19 531.77 1021.79 531.77C1019.37 531.77 1018.09 533.57 1018.09 537.62V539.17C1018.09 543.245 1019.34 545.17 1021.77 545.17ZM1037.73 547.22C1034.13 547.22 1031.31 544.87 1031.31 539.095V537.895C1031.31 531.845 1034.33 529.72 1037.78 529.72C1041.21 529.72 1044.08 531.87 1044.08 537.795V539.07C1044.08 544.945 1041.26 547.22 1037.73 547.22ZM1037.73 545.17C1040.16 545.17 1041.41 543.495 1041.41 539.32V537.77C1041.41 533.645 1040.16 531.77 1037.76 531.77C1035.33 531.77 1034.06 533.57 1034.06 537.62V539.17C1034.06 543.245 1035.31 545.17 1037.73 545.17ZM1053.7 547.22C1050.1 547.22 1047.28 544.87 1047.28 539.095V537.895C1047.28 531.845 1050.3 529.72 1053.75 529.72C1057.18 529.72 1060.05 531.87 1060.05 537.795V539.07C1060.05 544.945 1057.23 547.22 1053.7 547.22ZM1053.7 545.17C1056.13 545.17 1057.38 543.495 1057.38 539.32V537.77C1057.38 533.645 1056.13 531.77 1053.73 531.77C1051.3 531.77 1050.03 533.57 1050.03 537.62V539.17C1050.03 543.245 1051.28 545.17 1053.7 545.17Z" fill="black"/>
<path d="M332.75 440.27V438.22H344.5V440.27H340.025V440.345C340.025 443.67 342.525 446.07 345.125 446.87L343.7 448.895C341.875 448.17 339.7 446.42 338.725 444.32C338.075 446.545 335.675 448.695 333.45 449.52L331.9 447.545C335.025 446.37 337.4 443.77 337.4 440.47V440.27H332.75ZM335.1 450.87H350.125V458.97H347.55V452.895H335.1V450.87ZM350.1 449.72H347.525V436.695H350.1V449.72ZM371.756 458.67H357.256V449.795H359.831V452.195H369.206V449.72H371.756V458.67ZM354.156 439.97V437.87H365.881V439.97H361.431C361.431 443.27 363.881 445.695 366.481 446.52L365.056 448.545C363.231 447.82 361.056 446.07 360.106 443.995C359.456 446.17 357.056 448.345 354.831 449.17L353.281 447.195C356.406 446.02 358.781 443.345 358.781 440.045V439.97H354.156ZM371.731 448.57H369.181V443.97H365.581V441.845H369.181V436.67H371.731V448.57ZM369.206 456.595V454.195H359.831V456.595H369.206ZM399.929 458.67H385.379V449.795H387.954V452.12H397.379V449.745H399.929V458.67ZM397.379 456.595V454.17H387.954V456.595H397.379ZM399.904 448.57H397.354V436.67H399.904V448.57ZM393.604 442.945C393.604 446.07 391.154 447.995 387.904 447.995C384.679 447.995 382.204 446.07 382.204 442.945C382.204 439.895 384.679 437.67 387.904 437.67C391.154 437.67 393.604 439.82 393.604 442.945ZM391.054 442.895C391.054 440.945 389.704 439.795 387.904 439.795C386.129 439.795 384.779 440.995 384.779 442.895C384.779 444.77 386.154 445.87 387.904 445.87C389.654 445.87 391.054 444.77 391.054 442.895ZM414.71 446.67L415.035 448.67C412.385 449.195 410.135 449.245 406.96 449.245H404.06V442.345H411.26V439.92H404.035V437.92H413.81V444.32H406.61V447.195C409.085 447.195 412.01 447.195 414.71 446.67ZM415.41 441.845V439.77H418.985V436.67H421.535V450.12H418.985V446.545H415.41V444.47H418.985V441.845H415.41ZM406.435 451.345H421.56V458.995H419.01V453.395H406.435V451.345ZM436.491 449.77C436.491 452.445 434.366 454.52 431.191 454.52C427.991 454.52 425.841 452.52 425.841 449.77C425.841 447.12 427.991 445.02 431.191 445.02C434.366 445.02 436.491 447.045 436.491 449.77ZM433.966 449.77C433.966 448.195 432.791 447.12 431.191 447.12C429.566 447.12 428.416 448.195 428.416 449.77C428.416 451.32 429.566 452.42 431.191 452.42C432.916 452.42 433.966 451.32 433.966 449.77ZM437.616 443.945H424.666V441.87H437.616V443.945ZM427.816 440.07V437.97H434.566V440.07H427.816ZM442.141 436.67V445.82H445.591V447.97H442.141V458.945H439.566V436.67H442.141ZM464.822 458.945H462.272V436.67H464.822V458.945ZM457.997 439.02C457.847 445.92 454.397 451.245 447.972 454.77L446.372 452.82C451.497 450.47 454.822 445.795 455.247 441.12H447.672V439.02H457.997Z" fill="black"/>
<path d="M273 475.97H526" stroke="black"/>
<path d="M294.23 653.01C294.23 656.01 290.9 658.08 284.99 658.08C279.08 658.08 275.75 656.01 275.75 653.01C275.75 650.01 279.08 647.97 284.96 647.97C290.9 647.97 294.23 650.01 294.23 653.01ZM291.08 653.01C291.08 651.36 288.8 650.34 284.96 650.34C281.15 650.34 278.87 651.36 278.87 653.01C278.87 654.66 281.15 655.68 284.96 655.68C288.71 655.68 291.08 654.66 291.08 653.01ZM297.05 659.94V662.43H272.9V659.94H297.05ZM294.29 669.42C294.29 672.48 290.87 674.34 284.99 674.34C279.14 674.34 275.72 672.48 275.72 669.42C275.72 666.42 279.14 664.53 284.96 664.53C290.87 664.53 294.29 666.42 294.29 669.42ZM291.11 669.45C291.11 667.89 288.71 666.99 284.96 666.99C281.27 666.99 278.87 667.89 278.87 669.45C278.87 671.04 281.27 671.85 284.96 671.85C288.74 671.85 291.11 671.04 291.11 669.45ZM313.767 653.19C313.767 656.1 311.007 658.05 307.137 658.05C303.297 658.05 300.447 656.13 300.447 653.13C300.447 650.28 303.297 648.21 307.137 648.21C311.007 648.21 313.767 650.28 313.767 653.19ZM312.927 665.37V663.12H318.147V647.61H321.207V668.22H318.147V665.37H312.927ZM321.687 673.65H302.337V665.79H305.397V671.19H321.687V673.65ZM309.507 666.87H306.417V662.01C303.927 662.13 301.467 662.19 298.977 662.22L298.557 659.67C301.587 659.67 304.497 659.64 307.437 659.52C311.037 659.4 313.857 659.19 316.227 658.92L316.437 661.2C314.157 661.47 311.817 661.68 309.507 661.83V666.87ZM310.737 653.19C310.737 651.78 309.357 650.58 307.137 650.58C304.917 650.58 303.507 651.78 303.507 653.19C303.507 654.57 304.917 655.71 307.137 655.71C309.357 655.71 310.737 654.57 310.737 653.19ZM356.845 663.15H332.695V660.69H343.195V657.81H346.255V660.69H356.845V663.15ZM335.515 665.49H353.725V674.43H350.665V667.95H335.515V665.49ZM355.255 650.82H351.805C352.285 652.86 353.785 654.36 356.065 655.17L354.445 657.3C352.795 656.64 350.905 654.96 350.245 653.52C349.585 655.17 347.785 656.76 346.195 657.39L344.365 655.2C346.675 654.39 348.115 652.89 348.535 650.82H345.265V648.36H355.255V650.82ZM344.215 650.82H341.215C341.575 652.62 342.715 653.91 344.485 654.63L342.745 656.79C341.425 656.13 340.135 654.75 339.565 653.61C338.905 655.14 337.165 656.97 335.215 657.72L333.415 655.56C335.935 654.69 337.495 652.86 337.975 650.82H334.555V648.36H344.215V650.82ZM375.362 665.64L373.562 667.89C371.072 666.51 367.832 663.09 366.962 660.33C366.272 663.21 363.572 666.75 360.392 668.43L358.442 666.18C362.702 663.78 365.372 659.55 365.372 654.15V652.83H359.792V650.4H373.982V652.83H368.552V654.12C368.552 659.52 371.432 663.51 375.362 665.64ZM380.672 674.34H377.612V647.61H380.672V674.34Z" fill="#707070"/>
<path d="M1131 704.97H273V919.97H1131V704.97Z" fill="white"/>
<path d="M1130.5 705.47H273.5V919.47H1130.5V705.47Z" stroke="black"/>
<path d="M1047.27 905.28C1044.09 905.28 1041.61 903.118 1041.61 897.897V896.609C1041.61 891.158 1044.26 889.318 1047.29 889.318C1050.3 889.318 1052.79 891.158 1052.79 896.517V897.92C1052.79 903.141 1050.4 905.28 1047.27 905.28ZM1047.27 903.762C1049.64 903.762 1050.93 902.152 1050.93 898.196V896.494C1050.93 892.607 1049.66 890.836 1047.29 890.836C1044.88 890.836 1043.57 892.515 1043.57 896.379V898.081C1043.57 901.922 1044.85 903.762 1047.27 903.762ZM1054.47 907.35L1059.87 888.214H1061.46L1056.06 907.35H1054.47ZM1066.15 905.096V891.411L1063.3 892.078V891.02L1066.93 889.318H1067.9V905.096H1066.15ZM1077.52 905.28C1074.35 905.28 1071.86 903.118 1071.86 897.897V896.609C1071.86 891.158 1074.51 889.318 1077.55 889.318C1080.56 889.318 1083.04 891.158 1083.04 896.517V897.92C1083.04 903.141 1080.65 905.28 1077.52 905.28ZM1077.52 903.762C1079.89 903.762 1081.18 902.152 1081.18 898.196V896.494C1081.18 892.607 1079.91 890.836 1077.55 890.836C1075.13 890.836 1073.82 892.515 1073.82 896.379V898.081C1073.82 901.922 1075.11 903.762 1077.52 903.762ZM1092.01 905.28C1088.84 905.28 1086.35 903.118 1086.35 897.897V896.609C1086.35 891.158 1089 889.318 1092.03 889.318C1095.05 889.318 1097.53 891.158 1097.53 896.517V897.92C1097.53 903.141 1095.14 905.28 1092.01 905.28ZM1092.01 903.762C1094.38 903.762 1095.67 902.152 1095.67 898.196V896.494C1095.67 892.607 1094.4 890.836 1092.03 890.836C1089.62 890.836 1088.31 892.515 1088.31 896.379V898.081C1088.31 901.922 1089.6 903.762 1092.01 903.762ZM1106.5 905.28C1103.32 905.28 1100.84 903.118 1100.84 897.897V896.609C1100.84 891.158 1103.48 889.318 1106.52 889.318C1109.53 889.318 1112.02 891.158 1112.02 896.517V897.92C1112.02 903.141 1109.63 905.28 1106.5 905.28ZM1106.5 903.762C1108.87 903.762 1110.15 902.152 1110.15 898.196V896.494C1110.15 892.607 1108.89 890.836 1106.52 890.836C1104.11 890.836 1102.79 892.515 1102.79 896.379V898.081C1102.79 901.922 1104.08 903.762 1106.5 903.762Z" fill="#DDDDDD"/>
<path d="M302.118 732.368V730.704H314.52V732.368H309.346C309.346 732.94 309.346 733.382 309.372 733.616C309.554 736.528 312.258 739.024 314.858 739.882L313.766 741.468C311.582 740.584 309.268 738.53 308.332 736.476C307.708 738.608 305.056 741.052 302.612 742.092L301.468 740.558C304.328 739.466 307.214 736.606 307.318 733.59C307.318 733.382 307.344 732.94 307.344 732.368H302.118ZM304.796 743.756H319.46V751.816H317.484V745.394H304.796V743.756ZM322.892 736.866H319.434V742.56H317.458V729.066H319.434V735.202H322.892V736.866ZM341.956 729.066V738.53H345.674V740.22H341.956V751.79H339.98V729.066H341.956ZM336.054 731.51C335.924 738.894 331.66 744.224 325.81 747.266L324.588 745.706C330.256 743.08 333.506 738.296 333.922 733.174H325.368V731.51H336.054ZM365.544 751.452H350.646V743.132H365.544V751.452ZM363.568 749.814V744.744H352.622V749.814H363.568ZM363.568 729.066H365.544V741.702H363.568V729.066ZM361.436 737.438L361.67 739.128C359.148 739.674 353.402 740.168 349.45 740.168H348.15V730.236H350.126V738.426C353.428 738.556 358.524 738.036 361.436 737.438ZM386.168 729.066H388.144V751.79H386.168V729.066ZM382.58 736.242C382.58 739.466 379.954 741.52 376.678 741.52C373.324 741.52 370.75 739.284 370.75 736.242C370.75 733.044 373.376 730.834 376.678 730.834C380.032 730.834 382.58 732.914 382.58 736.242ZM380.656 736.242C380.656 733.954 378.888 732.524 376.678 732.524C374.494 732.524 372.674 734.11 372.674 736.242C372.674 738.348 374.468 739.856 376.678 739.856C378.836 739.856 380.656 738.374 380.656 736.242ZM384.842 746.018C382.892 746.252 379.642 746.46 376.756 746.59C374.078 746.72 371.582 746.798 369.866 746.824L369.502 745.082C371.452 745.108 374.13 745.056 376.886 744.9C380.058 744.796 382.996 744.614 384.66 744.406L384.842 746.018ZM417.106 751.634H401.974V745.992H414.298V743.782H401.87V742.144H416.274V747.578H403.95V749.996H417.106V751.634ZM409.956 730.08C409.67 736.372 405.744 739.7 400.024 741.416L398.984 739.83C402.52 738.894 404.964 737.412 406.394 735.384L399.296 736.112L398.854 734.318L407.252 733.746C407.486 733.096 407.668 732.446 407.772 731.744H399.998V730.08H409.956ZM419.732 736.086H416.274V740.844H414.298V729.066H416.274V734.422H419.732V736.086ZM439.889 751.53H424.861V743.834H439.889V751.53ZM437.913 749.892V745.472H426.837V749.892H437.913ZM439.863 742.664H437.887V736.658H434.013V734.994H437.887V729.066H439.863V742.664ZM433.987 739.466L434.247 741.078C431.933 741.494 428.033 741.78 424.679 741.78H422.105V735.098H430.321V732.004H422.079V730.366H432.323V736.71H424.081V740.116H424.913C427.721 740.116 431.335 739.96 433.987 739.466ZM462.715 737.022C462.715 738.738 460.947 739.648 458.555 739.856V740.974C460.947 740.844 463.417 740.662 464.769 740.454L464.951 741.91C463.287 742.092 460.375 742.404 457.671 742.534C455.123 742.69 452.159 742.794 450.547 742.794L450.235 741.156C451.873 741.156 454.265 741.156 456.579 741.078V739.856C454.083 739.7 452.289 738.79 452.289 737.048C452.289 735.046 454.551 734.136 457.463 734.136C460.401 734.136 462.715 735.046 462.715 737.022ZM468.981 751.712H453.407V746.98H466.147V745.342H453.329V743.86H468.149V748.384H455.383V750.204H468.981V751.712ZM471.581 737.464H468.149V742.638H466.147V729.066H468.149V735.826H471.581V737.464ZM464.145 733.434H450.859V731.9H464.145V733.434ZM460.843 737.022C460.843 736.086 459.309 735.618 457.463 735.618C455.591 735.618 454.135 736.086 454.135 737.022C454.135 737.958 455.643 738.426 457.463 738.426C459.309 738.426 460.843 737.932 460.843 737.022ZM460.635 730.782H454.369V729.17H460.635V730.782ZM491.191 747.812C491.191 750.36 488.357 751.79 483.365 751.79C478.399 751.79 475.591 750.334 475.591 747.812C475.591 745.342 478.399 743.86 483.365 743.86C488.357 743.86 491.191 745.238 491.191 747.812ZM491.165 737.672H484.353V740.558H493.635V742.196H473.121V740.558H482.377V737.672H475.617V730.158H491.061V731.796H477.619V736.034H491.165V737.672ZM483.365 745.472C479.803 745.472 477.619 746.356 477.619 747.812C477.619 749.32 479.803 750.152 483.365 750.152C486.979 750.152 489.163 749.32 489.163 747.812C489.163 746.356 486.979 745.472 483.365 745.472ZM516.131 740.558H495.617V738.894H516.131V740.558ZM513.843 733.33C513.843 735.826 510.827 737.256 505.887 737.256C500.999 737.256 497.983 735.826 497.983 733.33C497.983 730.834 500.999 729.378 505.887 729.378C510.827 729.378 513.843 730.834 513.843 733.33ZM505.887 730.99C502.325 730.99 500.011 731.9 500.011 733.33C500.011 734.734 502.325 735.618 505.887 735.618C509.501 735.618 511.841 734.734 511.841 733.33C511.841 731.9 509.501 730.99 505.887 730.99ZM514.311 751.582H498.009V746.174H511.581V744.172H497.957V742.586H513.557V747.682H499.985V749.97H514.311V751.582ZM545.457 741.312H524.943V739.674H545.457V741.312ZM543.299 747.422C543.299 750.126 540.231 751.582 535.239 751.582C530.247 751.582 527.205 750.126 527.205 747.422C527.205 744.77 530.247 743.262 535.213 743.262C540.231 743.262 543.299 744.77 543.299 747.422ZM535.213 744.926C531.599 744.926 529.181 745.732 529.181 747.422C529.181 749.112 531.599 749.918 535.213 749.918C538.905 749.918 541.297 749.112 541.297 747.422C541.297 745.732 538.879 744.926 535.213 744.926ZM543.143 733.772C543.143 736.32 540.179 738.01 535.187 738.01C530.221 738.01 527.283 736.32 527.283 733.772C527.283 731.172 530.221 729.482 535.187 729.482C540.179 729.482 543.143 731.172 543.143 733.772ZM541.219 733.772C541.219 732.082 538.827 731.068 535.187 731.068C531.547 731.068 529.207 732.082 529.207 733.772C529.207 735.436 531.547 736.424 535.187 736.424C538.827 736.424 541.219 735.436 541.219 733.772ZM560.673 734.344C560.673 736.944 558.151 738.504 554.641 738.504C551.131 738.504 548.557 736.97 548.557 734.318C548.557 731.77 551.131 730.132 554.641 730.132C558.151 730.132 560.673 731.77 560.673 734.344ZM566.107 746.538H564.131V744.068H559.347V742.508H564.131V729.066H566.107V746.538ZM566.575 751.244H550.325V744.666H552.301V749.58H566.575V751.244ZM558.723 734.344C558.723 732.81 557.085 731.77 554.641 731.77C552.197 731.77 550.533 732.784 550.533 734.344C550.533 735.878 552.197 736.892 554.641 736.892C557.085 736.892 558.723 735.878 558.723 734.344ZM555.785 745.628H553.809V741.494C551.651 741.572 549.389 741.65 547.491 741.65L547.179 739.96C549.519 739.986 552.301 739.96 554.771 739.882C557.293 739.778 559.763 739.544 561.973 739.31L562.129 740.844C560.699 741.052 558.177 741.208 555.785 741.364V745.628ZM590.865 737.152H587.407V742.248H585.431V729.066H587.407V735.488H590.865V737.152ZM587.407 751.634H573.107V743.366H575.083V745.784H585.431V743.34H587.407V751.634ZM585.431 749.97V747.422H575.083V749.97H585.431ZM579.737 731.042H573.185V729.378H579.737V731.042ZM583.065 734.24H569.831V732.628H583.065V734.24ZM581.739 738.842C581.739 741.078 579.529 742.508 576.461 742.508C573.367 742.508 571.183 741.078 571.183 738.842C571.183 736.554 573.315 735.15 576.461 735.15C579.529 735.15 581.739 736.554 581.739 738.842ZM579.737 738.842C579.737 737.516 578.229 736.736 576.461 736.736C574.693 736.736 573.133 737.516 573.133 738.842C573.133 740.142 574.719 740.948 576.461 740.948C578.229 740.948 579.737 740.142 579.737 738.842ZM610.839 729.066V751.79H608.889V729.066H610.839ZM606.575 743.444L606.757 745.16C604.131 745.758 598.203 746.2 594.719 746.2H593.705V731.432H595.707V744.458C598.619 744.458 603.871 744.042 606.575 743.444ZM632.451 729.066V738.088H636.143V739.752H632.451V751.79H630.475V729.066H632.451ZM617.813 744.536H619.113C622.051 744.536 626.549 744.276 628.733 743.808L628.941 745.446C626.497 745.914 621.999 746.226 618.047 746.226H615.811V731.432H626.601V733.096H617.813V744.536ZM637.528 749.528V747.214H639.79V749.528H637.528Z" fill="#707070"/>
<path d="M844.5 1248.97H562.5C535.714 1248.97 514 1270.68 514 1297.47C514 1324.26 535.714 1345.97 562.5 1345.97H844.5C871.286 1345.97 893 1324.26 893 1297.47C893 1270.68 871.286 1248.97 844.5 1248.97Z" fill="black"/>
<path d="M844.5 1249.47H562.5C535.99 1249.47 514.5 1270.96 514.5 1297.47C514.5 1323.98 535.99 1345.47 562.5 1345.47H844.5C871.01 1345.47 892.5 1323.98 892.5 1297.47C892.5 1270.96 871.01 1249.47 844.5 1249.47Z" stroke="black"/>
<path d="M671.453 1286.11C671.453 1289.41 667.79 1291.69 661.289 1291.69C654.788 1291.69 651.125 1289.41 651.125 1286.11C651.125 1282.81 654.788 1280.57 661.256 1280.57C667.79 1280.57 671.453 1282.81 671.453 1286.11ZM667.988 1286.11C667.988 1284.3 665.48 1283.18 661.256 1283.18C657.065 1283.18 654.557 1284.3 654.557 1286.11C654.557 1287.93 657.065 1289.05 661.256 1289.05C665.381 1289.05 667.988 1287.93 667.988 1286.11ZM674.555 1293.74V1296.48H647.99V1293.74H674.555ZM671.519 1304.16C671.519 1307.53 667.757 1309.58 661.289 1309.58C654.854 1309.58 651.092 1307.53 651.092 1304.16C651.092 1300.86 654.854 1298.79 661.256 1298.79C667.757 1298.79 671.519 1300.86 671.519 1304.16ZM668.021 1304.2C668.021 1302.48 665.381 1301.49 661.256 1301.49C657.197 1301.49 654.557 1302.48 654.557 1304.2C654.557 1305.95 657.197 1306.84 661.256 1306.84C665.414 1306.84 668.021 1305.95 668.021 1304.2ZM692.944 1286.31C692.944 1289.51 689.908 1291.66 685.651 1291.66C681.427 1291.66 678.292 1289.55 678.292 1286.25C678.292 1283.11 681.427 1280.83 685.651 1280.83C689.908 1280.83 692.944 1283.11 692.944 1286.31ZM692.02 1299.71V1297.23H697.762V1280.17H701.128V1302.84H697.762V1299.71H692.02ZM701.656 1308.82H680.371V1300.17H683.737V1306.11H701.656V1308.82ZM688.258 1301.36H684.859V1296.01C682.12 1296.15 679.414 1296.21 676.675 1296.24L676.213 1293.44C679.546 1293.44 682.747 1293.41 685.981 1293.27C689.941 1293.14 693.043 1292.91 695.65 1292.61L695.881 1295.12C693.373 1295.42 690.799 1295.65 688.258 1295.82V1301.36ZM689.611 1286.31C689.611 1284.76 688.093 1283.44 685.651 1283.44C683.209 1283.44 681.658 1284.76 681.658 1286.31C681.658 1287.83 683.209 1289.08 685.651 1289.08C688.093 1289.08 689.611 1287.83 689.611 1286.31ZM720.473 1297.47C720.473 1301 717.668 1303.74 713.477 1303.74C709.253 1303.74 706.415 1301.1 706.415 1297.47C706.415 1293.97 709.253 1291.2 713.477 1291.2C717.668 1291.2 720.473 1293.87 720.473 1297.47ZM717.14 1297.47C717.14 1295.39 715.589 1293.97 713.477 1293.97C711.332 1293.97 709.814 1295.39 709.814 1297.47C709.814 1299.51 711.332 1300.96 713.477 1300.96C715.754 1300.96 717.14 1299.51 717.14 1297.47ZM721.958 1289.78H704.864V1287.04H721.958V1289.78ZM709.022 1284.66V1281.89H717.932V1284.66H709.022ZM727.931 1280.17V1292.25H732.485V1295.09H727.931V1309.58H724.532V1280.17H727.931ZM757.87 1309.58H754.504V1280.17H757.87V1309.58ZM748.861 1283.28C748.663 1292.38 744.109 1299.41 735.628 1304.07L733.516 1301.49C740.281 1298.39 744.67 1292.22 745.231 1286.05H735.232V1283.28H748.861Z" fill="white"/>
<path d="M329.457 1035.76C329.457 1038.11 327.019 1039.58 322.695 1039.58C318.394 1039.58 315.979 1038.11 315.979 1035.76C315.979 1033.39 318.394 1031.92 322.695 1031.92C327.019 1031.92 329.457 1033.39 329.457 1035.76ZM313.403 1022.63V1021.16H324.282V1022.63H319.751C319.751 1023.02 319.751 1023.48 319.774 1023.71C319.935 1026.45 322.511 1028.63 324.972 1029.37L323.937 1030.77C321.844 1029.94 319.682 1028.06 318.854 1026.24C318.302 1028.13 315.887 1030.54 313.725 1031.48L312.782 1030.08C315.312 1029.11 317.865 1026.56 317.957 1023.71C317.98 1023.48 317.98 1023 317.98 1022.63H313.403ZM322.695 1033.39C319.613 1033.39 317.75 1034.24 317.75 1035.76C317.75 1037.26 319.613 1038.11 322.695 1038.11C325.846 1038.11 327.663 1037.26 327.663 1035.76C327.663 1034.24 325.846 1033.39 322.695 1033.39ZM327.548 1026.17H323.5V1024.7H327.548V1019.48H329.296V1031.97H327.548V1026.17ZM345.562 1034.2L344.642 1035.6C342.457 1034.59 339.858 1032.08 339.145 1029.99C338.57 1032.13 336.086 1034.86 333.901 1036.01L332.866 1034.73C335.511 1033.46 338.202 1030.36 338.202 1026.61V1025.99H333.487V1024.54H344.688V1025.99H339.996V1026.58C339.996 1030.33 342.986 1033.3 345.562 1034.2ZM349.334 1039.58H347.563V1019.48H349.334V1039.58ZM342.158 1022.26H336.063V1020.67H342.158V1022.26ZM369.412 1026.52C369.412 1028.03 367.848 1028.84 365.732 1029.02V1030.01C367.848 1029.9 370.033 1029.74 371.229 1029.55L371.39 1030.84C369.918 1031 367.342 1031.28 364.95 1031.39C362.696 1031.53 360.074 1031.62 358.648 1031.62L358.372 1030.17C359.821 1030.17 361.937 1030.17 363.984 1030.1V1029.02C361.776 1028.88 360.189 1028.08 360.189 1026.54C360.189 1024.77 362.19 1023.96 364.766 1023.96C367.365 1023.96 369.412 1024.77 369.412 1026.52ZM374.955 1039.51H361.178V1035.32H372.448V1033.88H361.109V1032.56H374.219V1036.57H362.926V1038.18H374.955V1039.51ZM377.255 1026.91H374.219V1031.48H372.448V1019.48H374.219V1025.46H377.255V1026.91ZM370.677 1023.34H358.924V1021.98H370.677V1023.34ZM367.756 1026.52C367.756 1025.69 366.399 1025.27 364.766 1025.27C363.11 1025.27 361.822 1025.69 361.822 1026.52C361.822 1027.34 363.156 1027.76 364.766 1027.76C366.399 1027.76 367.756 1027.32 367.756 1026.52ZM367.572 1021H362.029V1019.57H367.572V1021ZM394.602 1036.06C394.602 1038.31 392.095 1039.58 387.679 1039.58C383.286 1039.58 380.802 1038.29 380.802 1036.06C380.802 1033.88 383.286 1032.56 387.679 1032.56C392.095 1032.56 394.602 1033.78 394.602 1036.06ZM394.579 1027.09H388.553V1029.64H396.764V1031.09H378.617V1029.64H386.805V1027.09H380.825V1020.44H394.487V1021.89H382.596V1025.64H394.579V1027.09ZM387.679 1033.99C384.528 1033.99 382.596 1034.77 382.596 1036.06C382.596 1037.39 384.528 1038.13 387.679 1038.13C390.876 1038.13 392.808 1037.39 392.808 1036.06C392.808 1034.77 390.876 1033.99 387.679 1033.99ZM403.256 1021.23C406.039 1021.23 407.534 1023.78 407.672 1027.44H409.834V1019.87H411.536V1038.61H409.834V1028.88H407.672C407.488 1032.52 406.016 1034.98 403.256 1034.98C400.335 1034.98 398.84 1032.15 398.84 1028.1C398.84 1024.08 400.335 1021.23 403.256 1021.23ZM405.947 1028.1C405.947 1024.86 404.889 1022.77 403.256 1022.77C401.646 1022.77 400.611 1024.86 400.611 1028.1C400.611 1031.37 401.646 1033.44 403.256 1033.44C404.889 1033.44 405.947 1031.37 405.947 1028.1ZM415.469 1039.58H413.744V1019.48H415.469V1039.58ZM441.411 1039.58H439.686V1028.86H436.995V1038.54H435.293V1019.96H436.995V1027.39H439.686V1019.48H441.411V1039.58ZM426.829 1032.89H427.427C429.451 1032.89 432.464 1032.75 434.166 1032.38L434.327 1033.81C432.418 1034.17 429.037 1034.4 426.415 1034.4H425.081V1021.94H432.878V1023.41H426.829V1032.89ZM462.875 1027.76H459.816V1034.31H458.068V1019.48H459.816V1026.29H462.875V1027.76ZM460.598 1038.94H447.212V1033.78H448.96V1037.46H460.598V1038.94ZM452.939 1021.73H447.143V1020.19H452.939V1021.73ZM456.044 1024.7H444.268V1023.25H456.044V1024.7ZM454.894 1029.3C454.894 1031.41 452.87 1032.82 450.156 1032.82C447.488 1032.82 445.441 1031.41 445.441 1029.3C445.441 1027.14 447.465 1025.78 450.156 1025.78C452.87 1025.78 454.894 1027.14 454.894 1029.3ZM453.238 1029.3C453.238 1027.96 451.789 1027.16 450.156 1027.16C448.546 1027.16 447.097 1027.96 447.097 1029.3C447.097 1030.61 448.546 1031.41 450.156 1031.41C451.789 1031.41 453.238 1030.61 453.238 1029.3ZM488.818 1026.22H485.759V1031.09H484.011V1019.48H485.759V1024.77H488.818V1026.22ZM485.759 1039.3H473.132V1032.13H485.759V1039.3ZM484.011 1037.85V1033.58H474.88V1037.85H484.011ZM471.085 1021.02H480.354C480.055 1026.54 476.03 1029.8 470.901 1031.28L470.096 1029.83C474.052 1029 477.893 1026.12 478.376 1022.49H471.085V1021.02ZM508.902 1029.07H505.659V1039.58H503.911V1019.48H505.659V1027.6H508.902V1029.07ZM502.002 1033.35L500.898 1034.68C498.828 1033.25 496.574 1030.86 495.769 1028.42C495.056 1030.93 493.101 1033.48 490.732 1035.14L489.605 1033.78C492.526 1031.99 494.895 1028.38 494.895 1024.81V1021.25H496.689V1024.77C496.689 1028.42 499.219 1031.71 502.002 1033.35ZM516.106 1020.79C519.211 1020.79 521.58 1022.7 521.58 1025.62C521.58 1028.26 519.648 1030.03 517.003 1030.38V1033.65C519.257 1033.51 521.304 1033.37 522.592 1033.19L522.73 1034.59C521.143 1034.82 518.383 1035.03 515.945 1035.19C513.737 1035.3 511.759 1035.37 510.08 1035.37L509.758 1033.83C511.253 1033.83 513.208 1033.83 515.255 1033.74V1030.38C512.587 1030.08 510.655 1028.31 510.655 1025.64C510.655 1022.72 513.001 1020.79 516.106 1020.79ZM516.106 1022.28C513.921 1022.28 512.357 1023.59 512.357 1025.64C512.357 1027.67 513.944 1028.95 516.106 1028.95C518.36 1028.95 519.855 1027.67 519.855 1025.66C519.855 1023.59 518.383 1022.28 516.106 1022.28ZM528.825 1029.37H525.605V1039.58H523.834V1019.48H525.605V1027.9H528.825V1029.37ZM546.304 1028.7V1027.23H550.72V1024.56H546.534V1023.09H550.72V1019.48H552.468V1031.44H550.72V1028.7H546.304ZM552.491 1039.58H550.743V1033.94H539.082V1032.5H552.491V1039.58ZM546.35 1020.86C545.959 1026.1 542.417 1029.62 537.311 1031.21L536.414 1029.78C540.416 1028.88 543.889 1025.76 544.418 1022.35H537.196V1020.86H546.35ZM566.526 1032.77L566.733 1034.22C564.617 1034.57 561.627 1034.82 558.246 1034.82H556.613V1026.95H563.743V1022.79H556.613V1021.34H565.491V1028.42H558.361V1033.32C560.776 1033.32 563.996 1033.21 566.526 1032.77ZM566.825 1031.25V1029.78H570.597V1025.89H566.825V1024.42H570.597V1019.48H572.345V1039.58H570.597V1031.25H566.825ZM590.613 1019.48H592.361V1039.58H590.613V1019.48ZM587.439 1025.83C587.439 1028.68 585.116 1030.49 582.218 1030.49C579.251 1030.49 576.974 1028.52 576.974 1025.83C576.974 1023 579.297 1021.04 582.218 1021.04C585.185 1021.04 587.439 1022.88 587.439 1025.83ZM585.737 1025.83C585.737 1023.8 584.173 1022.54 582.218 1022.54C580.286 1022.54 578.676 1023.94 578.676 1025.83C578.676 1027.69 580.263 1029.02 582.218 1029.02C584.127 1029.02 585.737 1027.71 585.737 1025.83ZM589.44 1034.47C587.715 1034.68 584.84 1034.86 582.287 1034.98C579.918 1035.09 577.71 1035.16 576.192 1035.19L575.87 1033.65C577.595 1033.67 579.964 1033.62 582.402 1033.48C585.208 1033.39 587.807 1033.23 589.279 1033.05L589.44 1034.47ZM616.555 1019.48H618.303V1039.58H616.555V1019.48ZM613.381 1025.83C613.381 1028.68 611.058 1030.49 608.16 1030.49C605.193 1030.49 602.916 1028.52 602.916 1025.83C602.916 1023 605.239 1021.04 608.16 1021.04C611.127 1021.04 613.381 1022.88 613.381 1025.83ZM611.679 1025.83C611.679 1023.8 610.115 1022.54 608.16 1022.54C606.228 1022.54 604.618 1023.94 604.618 1025.83C604.618 1027.69 606.205 1029.02 608.16 1029.02C610.069 1029.02 611.679 1027.71 611.679 1025.83ZM615.382 1034.47C613.657 1034.68 610.782 1034.86 608.229 1034.98C605.86 1035.09 603.652 1035.16 602.134 1035.19L601.812 1033.65C603.537 1033.67 605.906 1033.62 608.344 1033.48C611.15 1033.39 613.749 1033.23 615.221 1033.05L615.382 1034.47ZM638.065 1039.58H636.317V1019.48H638.065V1039.58ZM632.292 1034.4H622.793V1021.55H632.292V1034.4ZM630.544 1032.96V1023H624.564V1032.96H630.544ZM659.737 1037.03H641.59V1035.55H649.755V1032.13H643.821V1025.85H655.735V1022.63H643.798V1021.16H657.483V1027.3H645.569V1030.66H658.058V1032.13H651.503V1035.55H659.737V1037.03ZM667.647 1022.4V1020.93H678.618V1022.4H674.041C674.041 1022.9 674.041 1023.3 674.064 1023.5C674.225 1026.08 676.617 1028.29 678.917 1029.05L677.951 1030.45C676.019 1029.67 673.972 1027.85 673.144 1026.03C672.592 1027.92 670.246 1030.08 668.084 1031L667.072 1029.64C669.602 1028.68 672.155 1026.15 672.247 1023.48C672.247 1023.3 672.27 1022.9 672.27 1022.4H667.647ZM670.016 1032.47H682.988V1039.6H681.24V1033.92H670.016V1032.47ZM686.024 1026.38H682.965V1031.41H681.217V1019.48H682.965V1024.91H686.024V1026.38ZM702.889 1019.48V1027.85H706.178V1029.34H702.889V1039.58H701.141V1019.48H702.889ZM697.668 1021.64C697.553 1028.17 693.781 1032.89 688.606 1035.58L687.525 1034.2C692.539 1031.87 695.414 1027.64 695.782 1023.11H688.215V1021.64H697.668ZM725.48 1030.2H707.333V1028.84H725.48V1030.2ZM723.962 1039.21H709.426V1034.75H721.593V1033.07H709.449V1031.78H723.341V1035.99H711.174V1037.83H723.962V1039.21ZM723.617 1027.25H709.633V1023.09H721.478V1021.52H709.61V1020.14H723.226V1024.35H711.381V1025.94H723.617V1027.25ZM751.422 1030.31H733.275V1028.86H751.422V1030.31ZM749.513 1035.72C749.513 1038.11 746.799 1039.4 742.383 1039.4C737.967 1039.4 735.276 1038.11 735.276 1035.72C735.276 1033.37 737.967 1032.04 742.36 1032.04C746.799 1032.04 749.513 1033.37 749.513 1035.72ZM742.36 1033.51C739.163 1033.51 737.024 1034.22 737.024 1035.72C737.024 1037.21 739.163 1037.92 742.36 1037.92C745.626 1037.92 747.742 1037.21 747.742 1035.72C747.742 1034.22 745.603 1033.51 742.36 1033.51ZM749.375 1023.64C749.375 1025.89 746.753 1027.39 742.337 1027.39C737.944 1027.39 735.345 1025.89 735.345 1023.64C735.345 1021.34 737.944 1019.85 742.337 1019.85C746.753 1019.85 749.375 1021.34 749.375 1023.64ZM747.673 1023.64C747.673 1022.15 745.557 1021.25 742.337 1021.25C739.117 1021.25 737.047 1022.15 737.047 1023.64C737.047 1025.11 739.117 1025.99 742.337 1025.99C745.557 1025.99 747.673 1025.11 747.673 1023.64ZM764.883 1024.15C764.883 1026.45 762.652 1027.83 759.547 1027.83C756.442 1027.83 754.165 1026.47 754.165 1024.12C754.165 1021.87 756.442 1020.42 759.547 1020.42C762.652 1020.42 764.883 1021.87 764.883 1024.15ZM769.69 1034.93H767.942V1032.75H763.71V1031.37H767.942V1019.48H769.69V1034.93ZM770.104 1039.1H755.729V1033.28H757.477V1037.62H770.104V1039.1ZM763.158 1024.15C763.158 1022.79 761.709 1021.87 759.547 1021.87C757.385 1021.87 755.913 1022.77 755.913 1024.15C755.913 1025.5 757.385 1026.4 759.547 1026.4C761.709 1026.4 763.158 1025.5 763.158 1024.15ZM760.559 1034.13H758.811V1030.47C756.902 1030.54 754.901 1030.61 753.222 1030.61L752.946 1029.11C755.016 1029.14 757.477 1029.11 759.662 1029.05C761.893 1028.95 764.078 1028.75 766.033 1028.54L766.171 1029.9C764.906 1030.08 762.675 1030.22 760.559 1030.36V1034.13ZM791.591 1026.63H788.532V1031.14H786.784V1019.48H788.532V1025.16H791.591V1026.63ZM788.532 1039.44H775.882V1032.13H777.63V1034.27H786.784V1032.1H788.532V1039.44ZM786.784 1037.97V1035.72H777.63V1037.97H786.784ZM781.747 1021.23H775.951V1019.75H781.747V1021.23ZM784.691 1024.05H772.984V1022.63H784.691V1024.05ZM783.518 1028.13C783.518 1030.1 781.563 1031.37 778.849 1031.37C776.112 1031.37 774.18 1030.1 774.18 1028.13C774.18 1026.1 776.066 1024.86 778.849 1024.86C781.563 1024.86 783.518 1026.1 783.518 1028.13ZM781.747 1028.13C781.747 1026.95 780.413 1026.26 778.849 1026.26C777.285 1026.26 775.905 1026.95 775.905 1028.13C775.905 1029.28 777.308 1029.99 778.849 1029.99C780.413 1029.99 781.747 1029.28 781.747 1028.13ZM809.261 1019.48V1039.58H807.536V1019.48H809.261ZM805.489 1032.2L805.65 1033.71C803.327 1034.24 798.083 1034.63 795.001 1034.63H794.104V1021.57H795.875V1033.09C798.451 1033.09 803.097 1032.73 805.489 1032.2ZM828.379 1019.48V1027.46H831.645V1028.93H828.379V1039.58H826.631V1019.48H828.379ZM815.43 1033.16H816.58C819.179 1033.16 823.158 1032.93 825.09 1032.52L825.274 1033.97C823.112 1034.38 819.133 1034.66 815.637 1034.66H813.659V1021.57H823.204V1023.04H815.43V1033.16ZM832.869 1037.58V1035.53H834.87V1037.58H832.869Z" fill="#707070"/>
<path d="M315.312 1067.31V1069.51H313.058V1067.31C313.058 1065.9 313.978 1064.71 315.289 1064.43V1065.33C314.438 1065.54 313.978 1066.27 313.978 1067.31H315.312ZM335.356 1075.31H317.209V1073.86H335.356V1075.31ZM333.447 1080.72C333.447 1083.11 330.733 1084.4 326.317 1084.4C321.901 1084.4 319.21 1083.11 319.21 1080.72C319.21 1078.37 321.901 1077.04 326.294 1077.04C330.733 1077.04 333.447 1078.37 333.447 1080.72ZM326.294 1078.51C323.097 1078.51 320.958 1079.22 320.958 1080.72C320.958 1082.21 323.097 1082.92 326.294 1082.92C329.56 1082.92 331.676 1082.21 331.676 1080.72C331.676 1079.22 329.537 1078.51 326.294 1078.51ZM333.309 1068.64C333.309 1070.89 330.687 1072.39 326.271 1072.39C321.878 1072.39 319.279 1070.89 319.279 1068.64C319.279 1066.34 321.878 1064.85 326.271 1064.85C330.687 1064.85 333.309 1066.34 333.309 1068.64ZM331.607 1068.64C331.607 1067.15 329.491 1066.25 326.271 1066.25C323.051 1066.25 320.981 1067.15 320.981 1068.64C320.981 1070.11 323.051 1070.99 326.271 1070.99C329.491 1070.99 331.607 1070.11 331.607 1068.64ZM348.816 1069.15C348.816 1071.45 346.585 1072.83 343.48 1072.83C340.375 1072.83 338.098 1071.47 338.098 1069.12C338.098 1066.87 340.375 1065.42 343.48 1065.42C346.585 1065.42 348.816 1066.87 348.816 1069.15ZM353.623 1079.93H351.875V1077.75H347.643V1076.37H351.875V1064.48H353.623V1079.93ZM354.037 1084.1H339.662V1078.28H341.41V1082.62H354.037V1084.1ZM347.091 1069.15C347.091 1067.79 345.642 1066.87 343.48 1066.87C341.318 1066.87 339.846 1067.77 339.846 1069.15C339.846 1070.5 341.318 1071.4 343.48 1071.4C345.642 1071.4 347.091 1070.5 347.091 1069.15ZM344.492 1079.13H342.744V1075.47C340.835 1075.54 338.834 1075.61 337.155 1075.61L336.879 1074.11C338.949 1074.14 341.41 1074.11 343.595 1074.05C345.826 1073.95 348.011 1073.75 349.966 1073.54L350.104 1074.9C348.839 1075.08 346.608 1075.22 344.492 1075.36V1079.13ZM375.732 1074.44H372.466V1084.58H370.718V1064.48H372.466V1072.96H375.732V1074.44ZM365.819 1067.35H359.908V1065.86H365.819V1067.35ZM368.786 1070.76H356.918V1069.31H368.786V1070.76ZM367.59 1076.21C367.59 1078.53 365.704 1080.35 362.898 1080.35C360.092 1080.35 358.206 1078.55 358.206 1076.21C358.206 1073.86 360.092 1072.04 362.898 1072.04C365.704 1072.04 367.59 1073.84 367.59 1076.21ZM365.842 1076.21C365.842 1074.62 364.6 1073.52 362.898 1073.52C361.219 1073.52 359.954 1074.62 359.954 1076.21C359.954 1077.77 361.219 1078.9 362.898 1078.9C364.623 1078.9 365.842 1077.77 365.842 1076.21ZM393.332 1084.58H391.584V1064.48H393.332V1084.58ZM387.421 1066.62C387.329 1073.15 383.327 1078.14 378.129 1080.6L377.117 1079.22C382.2 1076.99 385.19 1072.62 385.558 1068.09H377.853V1066.62H387.421ZM398.927 1065.4V1067.61C398.927 1069.01 398.007 1070.2 396.696 1070.48V1069.58C397.547 1069.38 397.984 1068.64 397.984 1067.61H396.673V1065.4H398.927ZM419.292 1076.32H401.145V1074.85H419.292V1076.32ZM417.36 1084.14H403.514V1078.21H405.262V1082.69H417.36V1084.14ZM417.268 1072.34H403.583V1065.33H405.331V1070.89H417.268V1072.34ZM439.002 1078.55L437.944 1079.86C436.058 1078.67 433.597 1076.14 432.884 1073.75C432.194 1076.18 430.239 1078.67 427.824 1080.35L426.674 1079.04C429.641 1077.29 431.964 1073.75 431.964 1070.14V1068.07H427.318V1066.59H438.427V1068.07H433.781V1070.09C433.781 1073.84 436.242 1076.99 439.002 1078.55ZM445.81 1074.11H442.544V1084.58H440.796V1064.48H442.544V1072.64H445.81V1074.11ZM465.503 1070.46H462.444V1074.87H460.696V1064.48H462.444V1068.99H465.503V1070.46ZM463.18 1084.44H449.61V1079.43H460.696V1077.45H449.587V1076.02H462.444V1080.78H451.358V1082.99H463.18V1084.44ZM457.085 1074.18H447.701V1065.26H449.449V1068.2H455.314V1065.26H457.085V1074.18ZM455.314 1072.73V1069.65H449.449V1072.73H455.314ZM467.418 1067.51V1066.04H478.251V1067.51H473.766C473.766 1067.93 473.766 1068.46 473.789 1068.71C473.95 1071.45 476.388 1073.68 478.688 1074.44L477.722 1075.84C475.79 1075.06 473.697 1073.06 472.869 1071.24C472.317 1073.13 469.902 1075.54 467.74 1076.48L466.797 1075.08C469.327 1074.11 471.88 1071.56 471.972 1068.71C471.995 1068.46 471.995 1067.9 471.995 1067.51H467.418ZM469.925 1077.52H483.334V1084.58H481.563V1078.97H469.925V1077.52ZM483.311 1076.46H481.563V1071.29H477.538V1069.84H481.563V1064.48H483.311V1076.46ZM510.012 1084.46H496.258V1079.4H507.505V1077.2H496.189V1075.82H509.253V1080.67H498.006V1083.08H510.012V1084.46ZM503.112 1065.58C502.698 1070.87 498.972 1074.09 493.958 1075.54L493.084 1074.11C497.5 1073.01 500.444 1070.34 501.111 1067.05H493.935V1065.58H503.112ZM503.319 1068.82V1067.44H507.505V1064.48H509.253V1074.71H507.505V1072.55H503.066V1071.15H507.505V1068.82H503.319ZM522.989 1078.55L521.885 1079.84C520.459 1078.83 518.343 1076.48 517.768 1074.37C517.354 1076.6 515.537 1078.99 513.582 1080.37L512.409 1079.15C514.778 1077.63 516.894 1074.46 516.894 1070.55V1068.3H512.892V1066.85H522.483V1068.3H518.619V1070.5C518.619 1074.46 520.505 1076.94 522.989 1078.55ZM525.703 1083.57H523.978V1073.31H520.758V1071.86H523.978V1064.96H525.703V1083.57ZM529.682 1084.58H527.957V1064.48H529.682V1084.58ZM549.169 1084.58H547.421V1064.48H549.169V1084.58ZM533.299 1073.08C533.299 1068.85 535.185 1066 538.474 1066C541.809 1066 543.672 1068.85 543.672 1073.1C543.672 1077.36 541.809 1080.21 538.474 1080.21C535.185 1080.21 533.299 1077.36 533.299 1073.08ZM542.016 1073.1C542.016 1069.79 540.613 1067.51 538.474 1067.51C536.358 1067.51 534.955 1069.79 534.955 1073.1C534.955 1076.39 536.358 1078.69 538.474 1078.69C540.613 1078.69 542.016 1076.39 542.016 1073.1ZM568.333 1075.75H554.901V1066.46H568.333V1075.75ZM566.585 1074.3V1067.9H556.649V1074.3H566.585ZM570.679 1081.82H552.532V1080.35H570.679V1081.82ZM590.58 1082.03H572.433V1080.55H580.598V1077.13H574.664V1070.85H586.578V1067.63H574.641V1066.16H588.326V1072.3H576.412V1075.66H588.901V1077.13H582.346V1080.55H590.58V1082.03ZM611.002 1077.7C609.553 1077.89 606.954 1078.12 604.562 1078.28C602.308 1078.42 599.801 1078.48 598.398 1078.48L598.099 1077.01C599.571 1077.01 601.595 1077.01 603.619 1076.94V1075.54C601.48 1075.33 599.847 1074.44 599.847 1072.71C599.847 1070.73 602.009 1069.77 604.562 1069.77C607.161 1069.77 609.323 1070.71 609.323 1072.69C609.323 1074.46 607.598 1075.36 605.39 1075.54V1076.85C607.506 1076.71 609.714 1076.53 610.91 1076.35L611.002 1077.7ZM617.028 1073.15H613.877V1080.12H612.106V1064.43H613.877V1071.68H617.028V1073.15ZM614.383 1084.23H601.135V1079.24H602.883V1082.79H614.383V1084.23ZM610.335 1069.1H598.651V1067.67H610.335V1069.1ZM607.69 1072.69C607.69 1071.65 606.333 1071.17 604.562 1071.17C602.814 1071.17 601.503 1071.65 601.503 1072.69C601.503 1073.72 602.814 1074.21 604.562 1074.21C606.333 1074.21 607.69 1073.7 607.69 1072.69ZM607.391 1066.46H601.848V1064.98H607.391V1066.46ZM634.927 1084.23H620.46V1079.75H632.42V1078.14H620.391V1076.71H626.44V1074.83H618.275V1073.38H636.422V1074.83H628.188V1076.71H634.168V1081.11H622.208V1082.79H634.927V1084.23ZM634.145 1071.93H620.575V1065.01H622.323V1067.1H632.397V1065.01H634.145V1071.93ZM632.397 1070.5V1068.5H622.323V1070.5H632.397ZM654.713 1084.58H652.965V1064.48H654.713V1084.58ZM638.843 1073.08C638.843 1068.85 640.729 1066 644.018 1066C647.353 1066 649.216 1068.85 649.216 1073.1C649.216 1077.36 647.353 1080.21 644.018 1080.21C640.729 1080.21 638.843 1077.36 638.843 1073.08ZM647.56 1073.1C647.56 1069.79 646.157 1067.51 644.018 1067.51C641.902 1067.51 640.499 1069.79 640.499 1073.1C640.499 1076.39 641.902 1078.69 644.018 1078.69C646.157 1078.69 647.56 1076.39 647.56 1073.1ZM680.77 1084.23H666.303V1079.75H678.263V1078.14H666.234V1076.71H672.283V1074.83H664.118V1073.38H682.265V1074.83H674.031V1076.71H680.011V1081.11H668.051V1082.79H680.77V1084.23ZM679.988 1071.93H666.418V1065.01H668.166V1067.1H678.24V1065.01H679.988V1071.93ZM678.24 1070.5V1068.5H668.166V1070.5H678.24ZM699.475 1064.48V1072.85H702.764V1074.34H699.475V1084.58H697.727V1064.48H699.475ZM694.254 1066.64C694.139 1073.17 690.367 1077.89 685.192 1080.58L684.111 1079.2C689.125 1076.87 692 1072.64 692.368 1068.11H684.801V1066.64H694.254ZM722.066 1075.31H703.919V1073.86H722.066V1075.31ZM719.973 1071.68H706.449V1065.01H708.197V1070.23H719.973V1071.68ZM720.088 1080.72C720.088 1083.13 717.397 1084.46 713.027 1084.46C708.634 1084.46 705.989 1083.13 705.989 1080.72C705.989 1078.32 708.634 1076.99 713.004 1076.99C717.397 1076.99 720.088 1078.32 720.088 1080.72ZM713.004 1078.42C709.853 1078.42 707.76 1079.15 707.76 1080.72C707.76 1082.28 709.853 1083.02 713.004 1083.02C716.201 1083.02 718.317 1082.28 718.317 1080.72C718.317 1079.15 716.201 1078.42 713.004 1078.42ZM742.334 1071.63H739.275V1076.14H737.527V1064.48H739.275V1070.16H742.334V1071.63ZM739.275 1084.44H726.625V1077.13H728.373V1079.27H737.527V1077.1H739.275V1084.44ZM737.527 1082.97V1080.72H728.373V1082.97H737.527ZM732.49 1066.23H726.694V1064.75H732.49V1066.23ZM735.434 1069.05H723.727V1067.63H735.434V1069.05ZM734.261 1073.13C734.261 1075.1 732.306 1076.37 729.592 1076.37C726.855 1076.37 724.923 1075.1 724.923 1073.13C724.923 1071.1 726.809 1069.86 729.592 1069.86C732.306 1069.86 734.261 1071.1 734.261 1073.13ZM732.49 1073.13C732.49 1071.95 731.156 1071.26 729.592 1071.26C728.028 1071.26 726.648 1071.95 726.648 1073.13C726.648 1074.28 728.051 1074.99 729.592 1074.99C731.156 1074.99 732.49 1074.28 732.49 1073.13ZM760.004 1064.48V1084.58H758.279V1064.48H760.004ZM756.232 1077.2L756.393 1078.71C754.07 1079.24 748.826 1079.63 745.744 1079.63H744.847V1066.57H746.618V1078.09C749.194 1078.09 753.84 1077.73 756.232 1077.2ZM779.122 1064.48V1072.46H782.388V1073.93H779.122V1084.58H777.374V1064.48H779.122ZM766.173 1078.16H767.323C769.922 1078.16 773.901 1077.93 775.833 1077.52L776.017 1078.97C773.855 1079.38 769.876 1079.66 766.38 1079.66H764.402V1066.57H773.947V1068.04H766.173V1078.16ZM783.612 1082.58V1080.53H785.613V1082.58H783.612Z" fill="#707070"/>
<path d="M315.312 1112.31V1114.51H313.058V1112.31C313.058 1110.9 313.978 1109.71 315.289 1109.43V1110.33C314.438 1110.54 313.978 1111.27 313.978 1112.31H315.312ZM335.356 1120.31H317.209V1118.86H335.356V1120.31ZM333.447 1125.72C333.447 1128.11 330.733 1129.4 326.317 1129.4C321.901 1129.4 319.21 1128.11 319.21 1125.72C319.21 1123.37 321.901 1122.04 326.294 1122.04C330.733 1122.04 333.447 1123.37 333.447 1125.72ZM326.294 1123.51C323.097 1123.51 320.958 1124.22 320.958 1125.72C320.958 1127.21 323.097 1127.92 326.294 1127.92C329.56 1127.92 331.676 1127.21 331.676 1125.72C331.676 1124.22 329.537 1123.51 326.294 1123.51ZM333.309 1113.64C333.309 1115.89 330.687 1117.39 326.271 1117.39C321.878 1117.39 319.279 1115.89 319.279 1113.64C319.279 1111.34 321.878 1109.85 326.271 1109.85C330.687 1109.85 333.309 1111.34 333.309 1113.64ZM331.607 1113.64C331.607 1112.15 329.491 1111.25 326.271 1111.25C323.051 1111.25 320.981 1112.15 320.981 1113.64C320.981 1115.11 323.051 1115.99 326.271 1115.99C329.491 1115.99 331.607 1115.11 331.607 1113.64ZM348.816 1114.15C348.816 1116.45 346.585 1117.83 343.48 1117.83C340.375 1117.83 338.098 1116.47 338.098 1114.12C338.098 1111.87 340.375 1110.42 343.48 1110.42C346.585 1110.42 348.816 1111.87 348.816 1114.15ZM353.623 1124.93H351.875V1122.75H347.643V1121.37H351.875V1109.48H353.623V1124.93ZM354.037 1129.1H339.662V1123.28H341.41V1127.62H354.037V1129.1ZM347.091 1114.15C347.091 1112.79 345.642 1111.87 343.48 1111.87C341.318 1111.87 339.846 1112.77 339.846 1114.15C339.846 1115.5 341.318 1116.4 343.48 1116.4C345.642 1116.4 347.091 1115.5 347.091 1114.15ZM344.492 1124.13H342.744V1120.47C340.835 1120.54 338.834 1120.61 337.155 1120.61L336.879 1119.11C338.949 1119.14 341.41 1119.11 343.595 1119.05C345.826 1118.95 348.011 1118.75 349.966 1118.54L350.104 1119.9C348.839 1120.08 346.608 1120.22 344.492 1120.36V1124.13ZM375.732 1119.44H372.466V1129.58H370.718V1109.48H372.466V1117.96H375.732V1119.44ZM365.819 1112.35H359.908V1110.86H365.819V1112.35ZM368.786 1115.76H356.918V1114.31H368.786V1115.76ZM367.59 1121.21C367.59 1123.53 365.704 1125.35 362.898 1125.35C360.092 1125.35 358.206 1123.55 358.206 1121.21C358.206 1118.86 360.092 1117.04 362.898 1117.04C365.704 1117.04 367.59 1118.84 367.59 1121.21ZM365.842 1121.21C365.842 1119.62 364.6 1118.52 362.898 1118.52C361.219 1118.52 359.954 1119.62 359.954 1121.21C359.954 1122.77 361.219 1123.9 362.898 1123.9C364.623 1123.9 365.842 1122.77 365.842 1121.21ZM393.332 1129.58H391.584V1109.48H393.332V1129.58ZM387.421 1111.62C387.329 1118.15 383.327 1123.14 378.129 1125.6L377.117 1124.22C382.2 1121.99 385.19 1117.62 385.558 1113.09H377.853V1111.62H387.421ZM398.927 1110.4V1112.61C398.927 1114.01 398.007 1115.2 396.696 1115.48V1114.58C397.547 1114.38 397.984 1113.64 397.984 1112.61H396.673V1110.4H398.927ZM419.292 1121.32H401.145V1119.85H419.292V1121.32ZM417.36 1129.14H403.514V1123.21H405.262V1127.69H417.36V1129.14ZM417.268 1117.34H403.583V1110.33H405.331V1115.89H417.268V1117.34ZM437.3 1120.56H427.778V1111.25H437.3V1120.56ZM435.552 1119.11V1112.7H429.526V1119.11H435.552ZM445.603 1116.95H442.544V1124.08H440.796V1109.48H442.544V1115.48H445.603V1116.95ZM443.326 1128.89H429.963V1122.7H431.711V1127.44H443.326V1128.89ZM456.273 1127.1V1113.41L453.421 1114.08V1113.02L457.055 1111.32H458.021V1127.1H456.273ZM468.335 1127.37V1123.76H461.044V1122.38L468.588 1111.36H470.014V1122.27H472.59V1123.76H470.014V1127.37H468.335ZM462.999 1122.27H468.335V1114.26L462.999 1122.27ZM491.029 1129.58H489.304V1109.48H491.029V1129.58ZM487.05 1128.57H485.348V1118.19H481.783V1116.72H485.348V1109.96H487.05V1128.57ZM484.129 1123.23L483.048 1124.52C481.507 1123.42 479.391 1121.02 478.747 1118.75C478.31 1121.05 476.654 1123.67 474.653 1125.12L473.572 1123.81C475.849 1122.36 477.873 1118.93 477.873 1115V1111.34H479.598V1114.95C479.598 1118.86 481.944 1121.78 484.129 1123.23ZM516.488 1129.58H514.74V1109.48H516.488V1129.58ZM500.618 1118.08C500.618 1113.85 502.504 1111 505.793 1111C509.128 1111 510.991 1113.85 510.991 1118.1C510.991 1122.36 509.128 1125.21 505.793 1125.21C502.504 1125.21 500.618 1122.36 500.618 1118.08ZM509.335 1118.1C509.335 1114.79 507.932 1112.51 505.793 1112.51C503.677 1112.51 502.274 1114.79 502.274 1118.1C502.274 1121.39 503.677 1123.69 505.793 1123.69C507.932 1123.69 509.335 1121.39 509.335 1118.1ZM531.214 1118.75L530.179 1120.15C528.247 1119.21 526.269 1117.48 525.464 1115.46C524.843 1117.6 522.796 1119.6 520.45 1120.82L519.484 1119.46C522.359 1118.1 524.521 1115.57 524.521 1112.38V1110.44H526.292V1112.31C526.292 1115.5 528.937 1117.96 531.214 1118.75ZM535.584 1125.72C535.584 1128.11 533.054 1129.56 528.822 1129.56C524.613 1129.56 522.106 1128.11 522.106 1125.72C522.106 1123.32 524.613 1121.85 528.822 1121.85C533.054 1121.85 535.584 1123.32 535.584 1125.72ZM528.822 1123.3C525.786 1123.3 523.9 1124.17 523.9 1125.72C523.9 1127.26 525.786 1128.11 528.822 1128.11C531.881 1128.11 533.79 1127.26 533.79 1125.72C533.79 1124.17 531.881 1123.3 528.822 1123.3ZM538.367 1116.4H535.308V1121.87H533.56V1109.48H535.308V1114.93H538.367V1116.4ZM564.493 1119.07H561.25V1129.58H559.502V1109.48H561.25V1117.6H564.493V1119.07ZM557.593 1123.35L556.489 1124.68C554.419 1123.25 552.165 1120.86 551.36 1118.42C550.647 1120.93 548.692 1123.48 546.323 1125.14L545.196 1123.78C548.117 1121.99 550.486 1118.38 550.486 1114.81V1111.25H552.28V1114.77C552.28 1118.42 554.81 1121.71 557.593 1123.35ZM581.794 1113.71C581.794 1115.07 580.851 1116.15 579.149 1116.79V1119.64H583.841V1121.09H565.694V1119.64H570.317V1116.77C568.661 1116.12 567.764 1115.04 567.764 1113.71C567.764 1111.41 570.363 1109.91 574.756 1109.91C579.172 1109.91 581.794 1111.41 581.794 1113.71ZM581.932 1125.92C581.932 1128.22 579.218 1129.46 574.802 1129.46C570.386 1129.46 567.695 1128.22 567.695 1125.92C567.695 1123.62 570.386 1122.36 574.779 1122.36C579.218 1122.36 581.932 1123.62 581.932 1125.92ZM580.092 1113.71C580.092 1112.21 577.976 1111.32 574.756 1111.32C571.536 1111.32 569.466 1112.21 569.466 1113.71C569.466 1115.16 571.536 1116.06 574.756 1116.06C577.976 1116.06 580.092 1115.16 580.092 1113.71ZM574.779 1123.88C571.582 1123.88 569.443 1124.59 569.443 1125.92C569.443 1127.23 571.582 1127.95 574.779 1127.95C578.045 1127.95 580.161 1127.23 580.161 1125.92C580.161 1124.59 578.022 1123.88 574.779 1123.88ZM574.756 1117.46C573.767 1117.46 572.87 1117.39 572.065 1117.25V1119.64H577.401V1117.27C576.596 1117.39 575.745 1117.46 574.756 1117.46ZM597.509 1123.55L596.451 1124.86C594.565 1123.67 592.104 1121.14 591.391 1118.75C590.701 1121.18 588.746 1123.67 586.331 1125.35L585.181 1124.04C588.148 1122.29 590.471 1118.75 590.471 1115.14V1113.07H585.825V1111.59H596.934V1113.07H592.288V1115.09C592.288 1118.84 594.749 1121.99 597.509 1123.55ZM604.317 1119.11H601.051V1129.58H599.303V1109.48H601.051V1117.64H604.317V1119.11ZM615.707 1120.56H606.185V1111.25H615.707V1120.56ZM613.959 1119.11V1112.7H607.933V1119.11H613.959ZM624.01 1116.95H620.951V1124.08H619.203V1109.48H620.951V1115.48H624.01V1116.95ZM621.733 1128.89H608.37V1122.7H610.118V1127.44H621.733V1128.89ZM647.974 1129.58H646.226V1109.48H647.974V1129.58ZM632.104 1118.08C632.104 1113.85 633.99 1111 637.279 1111C640.614 1111 642.477 1113.85 642.477 1118.1C642.477 1122.36 640.614 1125.21 637.279 1125.21C633.99 1125.21 632.104 1122.36 632.104 1118.08ZM640.821 1118.1C640.821 1114.79 639.418 1112.51 637.279 1112.51C635.163 1112.51 633.76 1114.79 633.76 1118.1C633.76 1121.39 635.163 1123.69 637.279 1123.69C639.418 1123.69 640.821 1121.39 640.821 1118.1ZM667.438 1113.71C667.438 1115.07 666.495 1116.15 664.793 1116.79V1119.64H669.485V1121.09H651.338V1119.64H655.961V1116.77C654.305 1116.12 653.408 1115.04 653.408 1113.71C653.408 1111.41 656.007 1109.91 660.4 1109.91C664.816 1109.91 667.438 1111.41 667.438 1113.71ZM667.576 1125.92C667.576 1128.22 664.862 1129.46 660.446 1129.46C656.03 1129.46 653.339 1128.22 653.339 1125.92C653.339 1123.62 656.03 1122.36 660.423 1122.36C664.862 1122.36 667.576 1123.62 667.576 1125.92ZM665.736 1113.71C665.736 1112.21 663.62 1111.32 660.4 1111.32C657.18 1111.32 655.11 1112.21 655.11 1113.71C655.11 1115.16 657.18 1116.06 660.4 1116.06C663.62 1116.06 665.736 1115.16 665.736 1113.71ZM660.423 1123.88C657.226 1123.88 655.087 1124.59 655.087 1125.92C655.087 1127.23 657.226 1127.95 660.423 1127.95C663.689 1127.95 665.805 1127.23 665.805 1125.92C665.805 1124.59 663.666 1123.88 660.423 1123.88ZM660.4 1117.46C659.411 1117.46 658.514 1117.39 657.709 1117.25V1119.64H663.045V1117.27C662.24 1117.39 661.389 1117.46 660.4 1117.46ZM689.753 1116.26H686.694V1120.91H684.946V1109.48H686.694V1114.79H689.753V1116.26ZM687.453 1129.46H674.044V1124.98H684.946V1123.28H673.952V1121.94H686.694V1126.27H675.792V1128.11H687.453V1129.46ZM679.932 1111.29H674.136V1109.82H679.932V1111.29ZM682.945 1114.01H671.146V1112.58H682.945V1114.01ZM681.772 1117.83C681.772 1119.8 679.794 1120.89 677.034 1120.89C674.412 1120.89 672.319 1119.8 672.319 1117.83C672.319 1115.87 674.366 1114.79 677.034 1114.79C679.725 1114.79 681.772 1115.87 681.772 1117.83ZM680.093 1117.83C680.093 1116.7 678.621 1116.15 677.034 1116.15C675.447 1116.15 673.998 1116.7 673.998 1117.83C673.998 1118.95 675.47 1119.53 677.034 1119.53C678.621 1119.53 680.093 1118.95 680.093 1117.83ZM707.094 1129.6H705.346V1122.31H697.181V1120.84H715.328V1122.31H707.094V1129.6ZM714.592 1117.21L713.764 1118.7C710.751 1118.08 707.462 1116.19 706.243 1113.85C705.277 1116.19 701.85 1118.15 698.791 1118.75L697.94 1117.25C701.804 1116.75 705.346 1114.19 705.346 1111.46V1110.17H707.186V1111.46C707.186 1114.19 711.05 1116.77 714.592 1117.21ZM739.545 1121.16H737.797V1109.48H739.545V1121.16ZM740.419 1129.63H740.396C739.016 1128.96 737.199 1127.21 736.716 1125.76C736.21 1127.28 734.531 1129.1 732.898 1129.9L731.794 1128.73C733.956 1127.67 735.819 1125.49 735.819 1123.05V1121.83H737.567V1122.98C737.567 1125.46 739.568 1127.67 741.477 1128.38L740.419 1129.63ZM732.944 1126.87L731.748 1128.06C730.736 1127.53 729.655 1126.5 729.195 1125.39C728.712 1126.91 726.941 1128.84 725.216 1129.67L724.158 1128.43C726.205 1127.53 728.229 1125.32 728.229 1122.89V1121.9H729.977V1122.73C729.977 1124.86 731.403 1126.27 732.944 1126.87ZM728.827 1110.6C731.679 1110.6 734.025 1112.54 734.025 1115.43C734.025 1118.38 731.679 1120.22 728.827 1120.22C725.975 1120.22 723.606 1118.38 723.606 1115.46C723.606 1112.54 725.975 1110.6 728.827 1110.6ZM728.827 1112.03C726.803 1112.03 725.308 1113.46 725.308 1115.43C725.308 1117.44 726.803 1118.79 728.827 1118.79C730.92 1118.79 732.346 1117.44 732.346 1115.46C732.346 1113.46 730.943 1112.03 728.827 1112.03ZM760.227 1115.69L759.399 1117.21C756.363 1116.63 753.097 1114.72 752.108 1112.63C751.234 1114.72 747.899 1116.61 744.863 1117.21L744.035 1115.69C747.186 1115.34 751.211 1113.2 751.211 1110.37V1109.73H753.028V1110.37C753.028 1113.2 757.122 1115.34 760.227 1115.69ZM761.17 1120.26H743.023V1118.79H761.17V1120.26ZM758.87 1129.3H745.346V1121.69H747.094V1124.04H757.099V1121.67H758.87V1129.3ZM757.099 1127.85V1125.46H747.094V1127.85H757.099ZM779.208 1109.48V1129.58H777.483V1109.48H779.208ZM775.436 1122.2L775.597 1123.71C773.274 1124.24 768.03 1124.63 764.948 1124.63H764.051V1111.57H765.822V1123.09C768.398 1123.09 773.044 1122.73 775.436 1122.2ZM798.326 1109.48V1117.46H801.592V1118.93H798.326V1129.58H796.578V1109.48H798.326ZM785.377 1123.16H786.527C789.126 1123.16 793.105 1122.93 795.037 1122.52L795.221 1123.97C793.059 1124.38 789.08 1124.66 785.584 1124.66H783.606V1111.57H793.151V1113.04H785.377V1123.16ZM802.817 1127.58V1125.53H804.818V1127.58H802.817Z" fill="#707070"/>
<path d="M287.001 967.14L275.647 988.966H298.347L287.001 967.14ZM285.874 972.969H288.124V981.969H285.874V972.969ZM286.999 986.969C286.703 986.969 286.413 986.881 286.166 986.716C285.919 986.552 285.727 986.317 285.614 986.043C285.5 985.769 285.47 985.467 285.528 985.176C285.586 984.886 285.729 984.618 285.939 984.408C286.149 984.199 286.416 984.056 286.707 983.998C286.998 983.94 287.299 983.97 287.573 984.083C287.848 984.197 288.082 984.389 288.247 984.636C288.411 984.882 288.499 985.172 288.499 985.469C288.499 985.867 288.341 986.248 288.06 986.53C287.779 986.811 287.397 986.969 286.999 986.969Z" fill="black"/>
<path d="M299.998 990.965H273.998C273.826 990.965 273.657 990.921 273.507 990.836C273.358 990.752 273.232 990.631 273.143 990.484C273.054 990.337 273.004 990.17 272.999 989.998C272.993 989.827 273.031 989.656 273.111 989.504L286.111 964.504C286.195 964.342 286.322 964.206 286.479 964.111C286.635 964.016 286.815 963.966 286.998 963.966C287.181 963.966 287.36 964.016 287.516 964.111C287.673 964.206 287.8 964.342 287.885 964.504L300.885 989.504C300.964 989.656 301.002 989.827 300.997 989.998C300.991 990.17 300.941 990.337 300.852 990.484C300.763 990.631 300.637 990.752 300.488 990.836C300.338 990.921 300.169 990.965 299.998 990.965ZM275.648 988.965H298.348L286.998 967.139L275.648 988.965Z" fill="black"/>
<path d="M331.266 967.538C331.266 970.138 328.38 971.932 323.258 971.932C318.136 971.932 315.25 970.138 315.25 967.538C315.25 964.938 318.136 963.17 323.232 963.17C328.38 963.17 331.266 964.938 331.266 967.538ZM328.536 967.538C328.536 966.108 326.56 965.224 323.232 965.224C319.93 965.224 317.954 966.108 317.954 967.538C317.954 968.968 319.93 969.852 323.232 969.852C326.482 969.852 328.536 968.968 328.536 967.538ZM333.71 973.544V975.702H312.78V973.544H333.71ZM331.318 981.76C331.318 984.412 328.354 986.024 323.258 986.024C318.188 986.024 315.224 984.412 315.224 981.76C315.224 979.16 318.188 977.522 323.232 977.522C328.354 977.522 331.318 979.16 331.318 981.76ZM328.562 981.786C328.562 980.434 326.482 979.654 323.232 979.654C320.034 979.654 317.954 980.434 317.954 981.786C317.954 983.164 320.034 983.866 323.232 983.866C326.508 983.866 328.562 983.164 328.562 981.786ZM348.198 967.694C348.198 970.216 345.806 971.906 342.452 971.906C339.124 971.906 336.654 970.242 336.654 967.642C336.654 965.172 339.124 963.378 342.452 963.378C345.806 963.378 348.198 965.172 348.198 967.694ZM347.47 978.25V976.3H351.994V962.858H354.646V980.72H351.994V978.25H347.47ZM355.062 985.426H338.292V978.614H340.944V983.294H355.062V985.426ZM344.506 979.55H341.828V975.338C339.67 975.442 337.538 975.494 335.38 975.52L335.016 973.31C337.642 973.31 340.164 973.284 342.712 973.18C345.832 973.076 348.276 972.894 350.33 972.66L350.512 974.636C348.536 974.87 346.508 975.052 344.506 975.182V979.55ZM345.572 967.694C345.572 966.472 344.376 965.432 342.452 965.432C340.528 965.432 339.306 966.472 339.306 967.694C339.306 968.89 340.528 969.878 342.452 969.878C344.376 969.878 345.572 968.89 345.572 967.694ZM369.888 976.482C369.888 979.264 367.678 981.422 364.376 981.422C361.048 981.422 358.812 979.342 358.812 976.482C358.812 973.726 361.048 971.542 364.376 971.542C367.678 971.542 369.888 973.648 369.888 976.482ZM367.262 976.482C367.262 974.844 366.04 973.726 364.376 973.726C362.686 973.726 361.49 974.844 361.49 976.482C361.49 978.094 362.686 979.238 364.376 979.238C366.17 979.238 367.262 978.094 367.262 976.482ZM371.058 970.424H357.59V968.266H371.058V970.424ZM360.866 966.394V964.21H367.886V966.394H360.866ZM375.764 962.858V972.374H379.352V974.61H375.764V986.024H373.086V962.858H375.764ZM399.352 986.024H396.7V962.858H399.352V986.024ZM392.254 965.302C392.098 972.478 388.51 978.016 381.828 981.682L380.164 979.654C385.494 977.21 388.952 972.348 389.394 967.486H381.516V965.302H392.254ZM428.652 986.024H426V962.858H428.652V986.024ZM410.27 972.764C410.27 967.876 412.48 964.652 416.198 964.652C419.916 964.652 422.074 967.876 422.074 972.79C422.074 977.652 419.916 980.876 416.198 980.876C412.48 980.876 410.27 977.652 410.27 972.764ZM419.552 972.764C419.552 969.046 418.174 966.836 416.198 966.836C414.248 966.836 412.896 969.046 412.896 972.764C412.896 976.482 414.248 978.718 416.198 978.718C418.174 978.718 419.552 976.482 419.552 972.764ZM450.603 967.538C450.603 969.046 449.641 970.268 447.873 971.048V974.038H453.021V976.17H432.091V974.038H437.161V970.996C435.445 970.216 434.535 969.02 434.535 967.538C434.535 964.964 437.447 963.17 442.543 963.17C447.691 963.17 450.603 964.964 450.603 967.538ZM450.603 981.76C450.603 984.438 447.639 985.998 442.569 985.998C437.499 985.998 434.535 984.438 434.535 981.76C434.535 979.134 437.499 977.548 442.543 977.548C447.639 977.548 450.603 979.134 450.603 981.76ZM447.847 967.538C447.847 966.108 445.871 965.198 442.543 965.198C439.241 965.198 437.265 966.108 437.265 967.538C437.265 968.994 439.241 969.878 442.543 969.878C445.793 969.878 447.847 968.994 447.847 967.538ZM447.847 981.786C447.847 980.434 445.767 979.654 442.543 979.654C439.319 979.654 437.265 980.434 437.265 981.786C437.265 983.164 439.319 983.866 442.543 983.866C445.793 983.866 447.847 983.164 447.847 981.786ZM442.569 971.932C441.581 971.932 440.645 971.906 439.813 971.75V974.038H445.221V971.776C444.415 971.906 443.531 971.932 442.569 971.932ZM472.579 962.858V969.462H476.011V971.698H472.579V979.654H469.927V962.858H472.579ZM473.255 985.322H457.733V977.964H460.411V983.164H473.255V985.322ZM466.963 970.294C466.963 973.57 464.571 975.962 461.009 975.962C457.473 975.962 455.055 973.596 455.055 970.294C455.055 967.018 457.447 964.6 461.009 964.6C464.571 964.6 466.963 966.992 466.963 970.294ZM464.285 970.294C464.285 968.24 463.037 966.836 461.009 966.836C459.033 966.836 457.707 968.318 457.707 970.294C457.707 972.192 459.033 973.7 461.009 973.7C463.037 973.7 464.285 972.192 464.285 970.294ZM496.583 986.024H494.035V974.298H491.565V984.906H489.069V963.326H491.565V972.062H494.035V962.858H496.583V986.024ZM487.587 976.95L487.951 979.108C486.391 979.498 483.245 979.81 480.463 979.836H478.175V965.614H480.827V977.626C483.141 977.626 486.079 977.392 487.587 976.95Z" fill="black"/>
<path d="M335.5 198.97H295.5C278.103 198.97 264 213.073 264 230.47C264 247.867 278.103 261.97 295.5 261.97H335.5C352.897 261.97 367 247.867 367 230.47C367 213.073 352.897 198.97 335.5 198.97Z" fill="#FFFAD8"/>
<path d="M308.946 186.498H278.762V174.983H301.841V172.239H278.811V167.682H307.623V179.148H284.544V181.892H308.946V186.498ZM295.569 144.848C295.422 157.196 286.357 164.105 276.116 166.702L273.225 162.047C278.125 161.165 282.388 159.205 285.377 156.412L274.45 157.686L273.421 152.835L288.562 151.757C288.856 151.022 289.101 150.287 289.248 149.503H275.43V144.848H295.569ZM313.552 156.902H307.623V165.134H301.841V143.182H307.623V152.247H313.552V156.902ZM351.93 186.302H323.069V170.72H351.93V186.302ZM346.246 181.794V175.081H328.753V181.794H346.246ZM351.93 168.613H346.246V158.078H339.484V153.374H346.246V143.182H351.93V168.613ZM339.68 162.047L340.317 166.408C336.593 167.29 329.096 167.927 323.265 167.927H317.434V154.207H330.909V149.993H317.434V145.485H336.642V158.519H323.216V163.321C328.606 163.321 336.299 162.978 339.68 162.047ZM394.327 186.841H388.643V143.182H394.327V186.841ZM359.488 161.802C359.488 152.59 363.653 146.171 370.758 146.171C377.912 146.171 382.077 152.59 382.077 161.802C382.077 170.916 377.912 177.335 370.758 177.335C363.653 177.335 359.488 170.965 359.488 161.802ZM376.589 161.802C376.589 154.893 374.139 150.777 370.758 150.777C367.475 150.777 365.074 154.893 365.074 161.802C365.074 168.662 367.475 172.729 370.758 172.729C374.139 172.729 376.589 168.662 376.589 161.802ZM450.723 154.501L448.322 158.862C442.393 158.372 435.876 156.118 433.23 152.247C430.829 156.167 424.802 158.421 418.187 158.862L415.884 154.599C422.401 154.354 427.987 152.688 429.702 148.817H417.844V144.456H448.763V148.817H436.905C438.816 152.688 445.137 154.305 450.723 154.501ZM446.019 181.941C446.019 185.077 442.001 187.282 433.181 187.282C424.214 187.282 420.245 185.077 420.245 181.941C420.245 178.805 424.214 176.6 433.181 176.6C442.001 176.6 446.019 178.805 446.019 181.941ZM452.977 164.938H413.532V160.479H430.29V156.265H436.023V160.479H452.977V164.938ZM449.694 175.816H416.668V171.749H449.694V175.816ZM440.237 170.377H426.125V166.31H440.237V170.377ZM440.139 181.892C440.139 180.667 437.493 180.324 433.181 180.324C428.771 180.324 426.125 180.667 426.125 181.892C426.125 183.264 428.771 183.509 433.181 183.509C437.493 183.509 440.139 183.264 440.139 181.892ZM478.664 156.02C478.664 162.194 473.764 166.065 467.345 166.065C461.122 166.065 456.075 162.194 456.075 156.02C456.075 149.993 461.073 145.583 467.345 145.583C473.666 145.583 478.664 149.895 478.664 156.02ZM496.206 158.029H490.032V167.339H484.25V143.182H490.032V153.325H496.206V158.029ZM491.698 187.037C488.856 185.861 485.328 182.088 484.348 179.295C483.515 182.137 480.624 186.057 476.949 187.772C475.724 186.4 474.499 185.126 473.323 183.852C478.468 181.402 481.408 176.894 481.408 171.357V169.593H487.092V171.406C487.092 176.796 490.62 181.402 495.079 182.97L491.698 187.037ZM472.833 182.382C471.363 181.745 469.452 179.785 468.766 178.364C467.688 181.647 464.013 185.714 460.485 187.135L457.153 183.068C461.906 180.863 465.581 176.551 465.581 171.014V169.593H471.167V170.867C471.167 174.787 473.666 177.58 476.508 178.658C475.332 179.834 474.009 181.108 472.833 182.382ZM473.176 156.02C473.176 152.786 470.971 150.336 467.345 150.336C463.915 150.336 461.661 152.884 461.661 156.02C461.661 159.352 463.964 161.704 467.345 161.704C470.775 161.704 473.176 159.254 473.176 156.02ZM532.428 143.182V159.646H538.7V164.399H532.428V186.841H526.695V143.182H532.428ZM505.674 171.994C511.897 171.994 517.973 171.798 522.922 170.671C523.167 172.19 523.314 173.758 523.559 175.228C519.345 176.306 512.73 176.698 504.204 176.698H499.99V147.2H519.933V151.806H505.674V171.994ZM562.673 167.29H542.436V146.857H562.673V167.29ZM571.101 154.55H565.025V150.042H571.101V143.182H576.785V174.836H571.101V164.154H565.025V159.646H571.101V154.55ZM577.667 185.665H548.071V172.141H553.755V181.108H577.667V185.665ZM556.989 162.831V151.267H548.12V162.831H556.989ZM583.068 187.576L585.028 177.678H591.202L587.674 187.576H583.068Z" fill="black"/>
<path d="M312.915 222.076V226.633H273.47V222.076H312.915ZM283.907 211.639C283.907 213.991 287.288 215.657 293.168 215.657C298.95 215.657 302.527 213.991 302.527 211.639C302.527 209.287 299.146 207.719 293.168 207.719C287.288 207.719 283.907 209.287 283.907 211.639ZM278.027 211.639C278.027 206.837 283.466 203.309 293.168 203.309C302.968 203.309 308.407 206.837 308.407 211.639C308.407 216.49 302.968 220.018 293.217 220.018C283.466 220.018 278.027 216.49 278.027 211.639ZM308.456 237.511C308.456 242.46 302.87 245.596 293.217 245.596C283.564 245.596 277.978 242.46 277.978 237.511C277.978 232.513 283.564 229.328 293.168 229.328C302.87 229.328 308.456 232.513 308.456 237.511ZM302.527 237.56C302.527 235.306 298.901 233.885 293.168 233.885C287.533 233.885 283.858 235.306 283.858 237.56C283.858 239.765 287.533 241.039 293.168 241.039C298.901 241.039 302.527 239.765 302.527 237.56ZM340.709 211.688C340.709 216.392 336.152 219.724 329.782 219.724C323.412 219.724 318.708 216.392 318.708 211.59C318.708 206.984 323.412 203.554 329.782 203.554C336.152 203.554 340.709 206.984 340.709 211.688ZM338.651 231.533V227.417H346.981V202.182H352.714V235.943H346.981V231.533H338.651ZM353.4 244.665H321.354V231.778H327.087V240.108H353.4V244.665ZM334.241 233.836H328.557V226.045C324 226.192 319.737 226.241 316.454 226.241C316.209 224.771 315.964 223.203 315.67 221.733C326.401 221.733 337.377 221.194 343.502 220.41L343.845 224.624C340.856 225.114 337.622 225.408 334.241 225.653V233.836ZM335.025 211.688C335.025 209.777 333.016 207.817 329.782 207.817C326.45 207.817 324.49 209.777 324.49 211.688C324.49 213.599 326.45 215.412 329.782 215.412C333.016 215.412 335.025 213.599 335.025 211.688ZM397.708 225.163H358.263V220.606H397.708V225.163ZM394.082 245.645H362.967V234.522H386.83V232.023H363.016V227.564H392.514V238.54H368.7V240.941H394.082V245.645ZM368.553 210.659C368.553 212.619 371.983 214.187 378.059 214.187C384.135 214.187 387.614 212.619 387.614 210.659C387.614 208.65 384.135 207.18 378.059 207.18C371.983 207.18 368.553 208.65 368.553 210.659ZM362.624 210.659C362.624 205.906 368.161 202.819 378.059 202.819C387.908 202.819 393.494 205.906 393.494 210.659C393.494 215.363 387.908 218.499 378.059 218.499C368.161 218.499 362.624 215.363 362.624 210.659ZM452.977 240.402H413.532V235.845H430.29V227.368H418.285V205.171H423.969V211.933H442.54V205.073H448.273V227.368H436.023V235.845H452.977V240.402ZM442.54 222.811V216.343H423.969V222.811H442.54ZM493.021 245.841H487.582V223.987H483.368V243.832H478.027V202.966H483.368V219.381H487.582V202.182H493.021V245.841ZM476.263 233.003C473.96 233.689 466.953 234.277 461.759 234.277H457.839V207.278H463.474V229.524C467.737 229.524 472.833 229.181 475.528 228.397C475.724 229.965 476.018 231.435 476.263 233.003ZM502.587 222.86L500.088 218.401C506.654 217.715 513.906 213.795 514.886 208.601H501.852V204.044H534.192V208.601H521.158C522.187 213.795 529.488 217.519 536.005 218.205C535.221 219.724 534.388 221.194 533.604 222.664C527.92 222.027 520.423 218.058 518.022 213.893C515.719 218.352 508.565 222.076 502.587 222.86ZM520.815 245.792H515.033V230.602H498.324V226.045H537.769V230.602H520.815V245.792ZM577.863 245.841H572.424V202.182H577.863V245.841ZM569.141 243.832H563.8V221.88H557.92V217.225H563.8V203.015H569.141V243.832ZM562.771 231.141L559.537 235.208C556.646 233.444 552.726 229.083 551.599 224.771C550.374 229.328 547.091 233.836 543.024 236.286L539.643 232.366C545.18 228.789 548.806 222.223 548.806 212.913V206.396H554.294V212.864C554.294 221.341 557.479 227.956 562.771 231.141ZM618.789 216.343C618.789 223.007 612.468 227.809 602.864 227.809C593.309 227.809 586.988 223.007 586.988 216.343C586.988 209.63 593.309 204.73 602.864 204.73C612.468 204.73 618.789 209.63 618.789 216.343ZM622.562 240.402H583.117V235.796H591.937V228.544L597.67 228.789V235.796H607.911V228.789L613.644 228.544V235.796H622.562V240.402ZM612.909 216.343C612.909 212.374 608.94 209.532 602.864 209.532C596.788 209.532 592.868 212.374 592.868 216.343C592.868 220.263 596.788 223.105 602.864 223.105C608.891 223.105 612.909 220.263 612.909 216.343ZM628.454 230.21L627.67 205.073H634.04L633.354 230.21H628.454ZM627.964 240.647V234.914H633.844V240.647H627.964Z" fill="black"/>
<path d="M1629.23 101.151L1662.32 68.0609" stroke="#000001" stroke-width="3"/>
<path d="M1629.23 68.061L1662.32 101.151" stroke="#000001" stroke-width="3"/>
</svg>
